<svg xmlns="http://www.w3.org/2000/svg" xmlns:v="https://svgstorm.com"
viewBox = "0 0 200 200"
width="200"
height="200">
<g fill="None" fill-opacity="0.0" stroke="#244582" stroke-opacity="1.00" stroke-width="0.3"><path d="
M 0.00 200.00 
L 200.00 200.00
L 200.00 0.00
L 0.00 0.00
L 0.00 200.00
M 70.00 25.00 
C 80.50 24.45 91.71 33.81 101.08 37.92 C 110.44 42.04 119.51 50.17 128.23 55.77 C 136.95 61.37 145.03 69.19 153.00 76.00
C 154.46 77.25 155.71 78.73 157.00 80.00
C 158.22 81.01 159.03 81.83 160.00 83.00
C 162.62 85.67 165.58 88.17 168.00 91.00
C 171.50 95.09 174.64 98.98 176.00 104.00
C 176.75 106.77 176.93 108.23 176.00 111.00
C 171.22 125.15 153.33 131.85 141.77 139.77 C 130.21 147.69 113.25 155.67 100.00 161.00
C 88.01 165.82 76.18 169.02 64.00 173.00
C 63.05 173.31 62.45 173.90 61.00 174.00
C 59.68 174.09 58.32 174.00 57.00 174.00
C 53.85 174.43 51.26 175.38 48.00 174.00
C 47.50 174.00 46.49 174.08 46.00 174.00
C 43.48 173.60 41.25 171.19 40.00 169.00
C 35.66 161.38 33.38 148.80 33.00 140.00
C 32.94 138.69 33.18 137.30 33.00 136.00
C 32.70 133.80 32.00 130.84 32.00 128.00
C 32.00 121.33 32.00 114.67 32.00 108.00
C 32.00 103.80 32.37 99.49 33.00 96.00
C 34.39 75.61 37.14 53.34 46.00 35.00
C 46.61 33.73 47.16 32.11 48.00 31.00
C 49.21 29.12 51.00 26.98 53.00 26.00
C 53.40 25.80 54.00 26.00 54.00 26.00
C 54.83 25.21 54.94 24.61 56.00 24.00
C 60.54 21.40 65.88 23.59 70.00 25.00 Z"/>
</g>
<g fill="None" fill-opacity="0.0" stroke="#363F50" stroke-opacity="1.00" stroke-width="0.3"><path d="
M 56.00 24.00 
C 58.01 23.35 61.87 23.84 64.00 24.00
C 65.93 24.14 68.30 24.04 70.00 25.00
C 65.88 23.59 60.54 21.40 56.00 24.00 Z"/>
</g>
<g fill="None" fill-opacity="0.0" stroke="#895723" stroke-opacity="1.00" stroke-width="0.3"><path d="
M 54.00 26.00 
C 54.16 25.77 55.00 26.00 55.00 26.00
C 62.51 20.44 77.35 30.14 85.22 32.78 C 93.10 35.42 102.97 42.92 110.75 47.25 C 118.52 51.58 125.96 58.31 133.25 63.75 C 140.53 69.19 148.49 75.21 154.75 82.25 C 161.01 89.28 169.91 95.26 172.77 104.23 C 175.63 113.20 164.64 120.21 157.77 125.77 C 150.90 131.33 141.89 136.96 133.75 141.75 C 125.62 146.54 116.56 150.21 107.77 154.77 C 98.99 159.33 88.75 162.96 78.99 165.99 C 69.23 169.03 57.13 174.37 46.00 173.00
C 46.24 173.20 46.00 174.00 46.00 174.00
C 46.49 174.08 47.50 174.00 48.00 174.00
C 50.67 174.00 53.33 174.00 56.00 174.00
C 57.25 173.83 59.11 172.99 61.00 173.00
C 61.86 173.00 63.17 173.22 64.00 173.00
C 75.69 169.84 88.60 164.92 100.00 160.00
C 112.43 154.64 130.53 146.96 141.08 139.08 C 151.62 131.19 171.87 123.90 174.78 109.78 C 177.68 95.66 157.28 83.51 148.25 73.75 C 139.22 64.00 123.79 54.94 112.30 46.70 C 100.82 38.46 84.04 29.37 70.00 26.00
C 68.18 25.56 65.42 24.23 64.00 24.00
C 61.87 23.84 58.01 23.35 56.00 24.00
C 54.94 24.61 54.83 25.21 54.00 26.00 Z"/>
</g>
<g fill="None" fill-opacity="0.0" stroke="#907763" stroke-opacity="1.00" stroke-width="0.3"><path d="
M 70.00 26.00 
C 69.93 25.99 70.00 25.00 70.00 25.00
C 68.30 24.04 65.93 24.14 64.00 24.00
C 65.42 24.23 68.18 25.56 70.00 26.00 Z"/>
</g>
<g fill="None" fill-opacity="0.0" stroke="#F59014" stroke-opacity="1.00" stroke-width="0.3"><path d="
M 55.00 26.00 
C 56.38 27.32 49.01 33.42 48.00 35.00
C 38.22 55.92 36.08 79.66 35.00 103.00 C 33.92 126.34 33.08 152.71 44.00 172.00
C 44.86 172.62 44.68 172.84 46.00 173.00
C 57.13 174.37 69.23 169.03 78.99 165.99 C 88.75 162.96 98.99 159.33 107.77 154.77 C 116.56 150.21 125.62 146.54 133.75 141.75 C 141.89 136.96 150.90 131.33 157.77 125.77 C 164.64 120.21 175.63 113.20 172.77 104.23 C 169.91 95.26 161.01 89.28 154.75 82.25 C 148.49 75.21 140.53 69.19 133.25 63.75 C 125.96 58.31 118.52 51.58 110.75 47.25 C 102.97 42.92 93.10 35.42 85.22 32.78 C 77.35 30.14 62.51 20.44 55.00 26.00
M 104.00 61.00 
C 107.33 61.23 110.61 61.54 114.00 62.00
C 133.06 64.60 148.38 82.27 147.00 102.00 C 145.62 121.73 128.61 135.85 110.00 139.00
C 107.29 139.46 104.94 139.89 102.00 140.00
C 96.07 140.23 88.82 140.29 83.00 140.00 C 77.18 139.71 69.36 141.00 64.00 140.00 C 58.64 139.00 48.58 142.70 45.00 139.00
C 42.10 136.21 44.40 127.09 44.00 123.00 C 43.60 118.91 43.65 109.75 44.00 106.00 C 44.35 102.25 41.87 90.88 46.00 90.00
C 51.32 89.52 65.04 88.07 69.00 91.00
C 69.25 90.75 70.00 91.00 70.00 91.00
C 72.59 88.95 72.12 98.33 72.00 102.00 C 71.88 105.67 72.09 113.92 72.00 118.00
C 82.09 117.08 93.91 117.09 104.00 118.00
C 106.79 118.00 109.55 117.16 112.00 116.00
C 112.51 115.76 113.30 115.31 114.00 115.00
C 114.43 114.72 116.71 112.39 117.00 112.00
C 125.75 100.43 117.29 88.46 107.00 83.00
C 105.82 82.59 105.35 82.10 104.00 82.00
C 103.50 81.96 102.50 82.00 102.00 82.00
C 83.09 82.00 63.47 82.83 45.00 81.00
C 49.16 73.24 55.47 66.29 61.00 60.00
C 66.79 57.34 76.63 61.17 83.00 60.00 C 89.37 58.83 98.35 59.99 104.00 61.00 Z"/>
</g>
<g fill="None" fill-opacity="0.0" stroke="#CCC4C2" stroke-opacity="1.00" stroke-width="0.3"><path d="
M 70.00 26.00 
C 84.04 29.37 100.82 38.46 112.30 46.70 C 123.79 54.94 139.22 64.00 148.25 73.75 C 157.28 83.51 177.68 95.66 174.78 109.78 C 171.87 123.90 151.62 131.19 141.08 139.08 C 130.53 146.96 112.43 154.64 100.00 160.00
C 99.78 160.12 100.00 161.00 100.00 161.00
C 113.25 155.67 130.21 147.69 141.77 139.77 C 153.33 131.85 171.22 125.15 176.00 111.00
C 176.36 109.03 176.26 105.99 176.00 104.00
C 174.64 98.98 171.50 95.09 168.00 91.00
C 165.34 88.34 162.40 85.89 160.00 83.00
C 159.03 81.83 158.22 81.01 157.00 80.00
C 155.49 78.75 154.30 77.30 153.00 76.00
C 145.03 69.19 136.95 61.37 128.23 55.77 C 119.51 50.17 110.44 42.04 101.08 37.92 C 91.71 33.81 80.50 24.45 70.00 25.00
C 70.00 25.00 69.93 25.99 70.00 26.00 Z"/>
</g>
<g fill="None" fill-opacity="0.0" stroke="#686466" stroke-opacity="1.00" stroke-width="0.3"><path d="
M 48.00 31.00 
C 48.18 30.76 49.00 31.00 49.00 31.00
C 50.23 29.25 51.81 27.71 53.00 26.00
C 51.00 26.98 49.21 29.12 48.00 31.00 Z"/>
</g>
<g fill="None" fill-opacity="0.0" stroke="#ECDABE" stroke-opacity="1.00" stroke-width="0.3"><path d="
M 49.00 31.00 
C 48.11 32.26 46.71 33.88 46.00 35.00
C 37.14 53.34 34.39 75.61 33.00 96.00
C 32.73 99.96 33.00 104.03 33.00 108.00
C 33.00 114.67 33.00 121.33 33.00 128.00
C 33.00 130.62 32.74 133.39 33.00 136.00
C 33.11 137.11 33.04 139.03 33.00 140.00
C 33.38 148.80 35.66 161.38 40.00 169.00
C 40.78 170.09 42.94 171.24 44.00 172.00
C 33.08 152.71 33.92 126.34 35.00 103.00 C 36.08 79.66 38.22 55.92 48.00 35.00
C 49.62 31.54 51.84 29.09 54.00 26.00
C 54.00 26.00 53.40 25.80 53.00 26.00
C 51.81 27.71 50.23 29.25 49.00 31.00 Z"/>
</g>
<g fill="None" fill-opacity="0.0" stroke="#F4B866" stroke-opacity="1.00" stroke-width="0.3"><path d="
M 48.00 35.00 
C 49.01 33.42 56.38 27.32 55.00 26.00
C 55.00 26.00 54.16 25.77 54.00 26.00
C 51.84 29.09 49.62 31.54 48.00 35.00 Z"/>
</g>
<g fill="None" fill-opacity="0.0" stroke="#A3A0AA" stroke-opacity="1.00" stroke-width="0.3"><path d="
M 46.00 35.00 
C 46.71 33.88 48.11 32.26 49.00 31.00
C 49.00 31.00 48.18 30.76 48.00 31.00
C 47.16 32.11 46.61 33.73 46.00 35.00 Z"/>
</g>
<g fill="None" fill-opacity="0.0" stroke="#B58856" stroke-opacity="1.00" stroke-width="0.3"><path d="
M 102.00 82.00 
C 94.13 78.66 84.00 81.95 75.00 81.00 C 66.00 80.05 55.17 81.72 46.00 81.00
C 46.41 80.17 46.97 79.13 48.00 79.00
C 48.59 77.79 49.38 76.00 50.00 75.00
C 51.09 73.24 52.74 72.37 54.00 71.00
C 54.72 70.05 55.35 68.94 56.00 68.00
C 57.39 65.99 58.73 64.05 60.00 62.00
C 60.12 61.80 60.93 60.03 61.00 60.00
C 55.47 66.29 49.16 73.24 45.00 81.00
C 63.47 82.83 83.09 82.00 102.00 82.00 Z"/>
</g>
<g fill="None" fill-opacity="0.0" stroke="#95734D" stroke-opacity="1.00" stroke-width="0.3"><path d="
M 60.00 62.00 
C 60.22 61.75 61.00 62.00 61.00 62.00
C 65.73 58.50 75.74 61.60 82.00 61.00 C 88.26 60.40 97.53 60.56 104.00 61.00
C 98.35 59.99 89.37 58.83 83.00 60.00 C 76.63 61.17 66.79 57.34 61.00 60.00
C 60.93 60.03 60.12 61.80 60.00 62.00 Z"/>
</g>
<g fill="None" fill-opacity="0.0" stroke="#393639" stroke-opacity="1.00" stroke-width="0.3"><path d="
M 61.00 62.00 
C 68.70 58.64 80.56 63.55 89.00 62.00 C 97.44 60.45 107.93 62.61 116.00 64.00
C 115.53 63.80 114.40 62.14 114.00 62.00
C 110.61 61.54 107.33 61.23 104.00 61.00
C 97.53 60.56 88.26 60.40 82.00 61.00 C 75.74 61.60 65.73 58.50 61.00 62.00 Z"/>
</g>
<g fill="None" fill-opacity="0.0" stroke="#685D67" stroke-opacity="1.00" stroke-width="0.3"><path d="
M 56.00 68.00 
C 57.80 65.95 59.61 64.48 61.00 62.00
C 61.00 62.00 60.22 61.75 60.00 62.00
C 58.73 64.05 57.39 65.99 56.00 68.00 Z"/>
</g>
<g fill="None" fill-opacity="0.0" stroke="#223E74" stroke-opacity="1.00" stroke-width="0.3"><path d="
M 56.00 68.00 
C 55.35 68.94 54.72 70.05 54.00 71.00
C 52.91 72.44 50.94 73.73 50.00 75.00
C 49.38 76.00 48.59 77.79 48.00 79.00
C 55.68 77.67 67.25 80.95 76.00 80.00 C 84.75 79.05 95.68 79.31 104.00 81.00
C 110.87 82.40 116.91 85.25 120.00 92.00
C 122.53 97.53 122.45 103.40 120.00 109.00
C 118.03 113.51 115.72 114.06 112.00 116.00
C 110.45 116.81 108.77 118.16 107.00 119.00
C 104.07 120.39 99.51 121.50 96.00 121.00 C 92.49 120.50 84.73 121.29 82.00 121.00 C 79.27 120.71 69.35 122.13 70.00 119.00
C 66.34 113.93 69.00 98.58 69.00 92.00
C 61.73 92.66 54.29 91.51 47.00 92.00
C 46.33 105.17 48.33 119.66 46.00 132.00
C 46.00 132.50 46.00 133.50 46.00 134.00
C 46.10 134.73 47.91 136.60 47.00 138.00
C 69.96 137.15 93.83 139.99 116.00 136.00
C 121.82 134.77 127.18 131.58 132.00 128.00
C 133.66 126.56 136.73 123.66 138.00 122.00
C 140.94 117.50 143.62 111.54 144.00 106.00
C 144.29 101.71 144.00 97.30 144.00 93.00
C 144.00 91.42 144.28 89.55 144.00 88.00
C 143.83 87.40 142.40 85.82 142.00 85.00
C 136.80 74.46 127.85 66.04 116.00 64.00
C 107.93 62.61 97.44 60.45 89.00 62.00 C 80.56 63.55 68.70 58.64 61.00 62.00
C 59.61 64.48 57.80 65.95 56.00 68.00 Z"/>
</g>
<g fill="None" fill-opacity="0.0" stroke="#E6D0AE" stroke-opacity="1.00" stroke-width="0.3"><path d="
M 116.00 64.00 
C 127.85 66.04 136.80 74.46 142.00 85.00
C 142.97 86.42 143.62 85.95 144.00 88.00
C 144.28 89.55 144.00 91.42 144.00 93.00
C 144.45 97.24 144.76 101.76 144.00 106.00
C 143.62 111.54 140.94 117.50 138.00 122.00
C 136.44 124.40 134.22 126.35 132.00 128.00
C 127.18 131.58 121.82 134.77 116.00 136.00
C 114.28 136.57 112.11 137.53 110.00 138.00
C 109.86 138.05 110.00 139.00 110.00 139.00
C 128.61 135.85 145.62 121.73 147.00 102.00 C 148.38 82.27 133.06 64.60 114.00 62.00
C 114.40 62.14 115.53 63.80 116.00 64.00 Z"/>
</g>
<g fill="None" fill-opacity="0.0" stroke="#917871" stroke-opacity="1.00" stroke-width="0.3"><path d="
M 50.00 75.00 
C 50.94 73.73 52.91 72.44 54.00 71.00
C 52.74 72.37 51.09 73.24 50.00 75.00 Z"/>
</g>
<g fill="None" fill-opacity="0.0" stroke="#8E97B3" stroke-opacity="1.00" stroke-width="0.3"><path d="
M 157.00 80.00 
C 155.71 78.73 154.46 77.25 153.00 76.00
C 154.30 77.30 155.49 78.75 157.00 80.00 Z"/>
</g>
<g fill="None" fill-opacity="0.0" stroke="#4C3316" stroke-opacity="1.00" stroke-width="0.3"><path d="
M 102.00 82.00 
C 102.50 82.00 103.50 81.96 104.00 82.00
C 103.77 81.86 104.00 81.00 104.00 81.00
C 95.68 79.31 84.75 79.05 76.00 80.00 C 67.25 80.95 55.68 77.67 48.00 79.00
C 46.97 79.13 46.41 80.17 46.00 81.00
C 55.17 81.72 66.00 80.05 75.00 81.00 C 84.00 81.95 94.13 78.66 102.00 82.00 Z"/>
</g>
<g fill="None" fill-opacity="0.0" stroke="#4E4B50" stroke-opacity="1.00" stroke-width="0.3"><path d="
M 104.00 82.00 
C 105.35 82.10 105.82 82.59 107.00 83.00
C 112.03 84.75 117.17 87.09 120.00 92.00
C 116.91 85.25 110.87 82.40 104.00 81.00
C 104.00 81.00 103.77 81.86 104.00 82.00 Z"/>
</g>
<g fill="None" fill-opacity="0.0" stroke="#B4926B" stroke-opacity="1.00" stroke-width="0.3"><path d="
M 117.00 112.00 
C 117.62 111.26 119.54 109.77 120.00 109.00
C 122.45 103.40 122.53 97.53 120.00 92.00
C 117.17 87.09 112.03 84.75 107.00 83.00
C 117.29 88.46 125.75 100.43 117.00 112.00 Z"/>
</g>
<g fill="None" fill-opacity="0.0" stroke="#9BA7C0" stroke-opacity="1.00" stroke-width="0.3"><path d="
M 168.00 91.00 
C 165.58 88.17 162.62 85.67 160.00 83.00
C 162.40 85.89 165.34 88.34 168.00 91.00 Z"/>
</g>
<g fill="None" fill-opacity="0.0" stroke="#C4C8DB" stroke-opacity="1.00" stroke-width="0.3"><path d="
M 144.00 88.00 
C 143.62 85.95 142.97 86.42 142.00 85.00
C 142.40 85.82 143.83 87.40 144.00 88.00 Z"/>
</g>
<g fill="None" fill-opacity="0.0" stroke="#D69E5B" stroke-opacity="1.00" stroke-width="0.3"><path d="
M 45.00 139.00 
C 44.75 138.74 45.00 138.00 45.00 138.00
C 45.00 130.83 44.10 120.90 45.00 114.00 C 45.90 107.10 42.14 96.22 46.00 91.00
C 46.24 90.68 46.00 90.00 46.00 90.00
C 41.87 90.88 44.35 102.25 44.00 106.00 C 43.65 109.75 43.60 118.91 44.00 123.00 C 44.40 127.09 42.10 136.21 45.00 139.00 Z"/>
</g>
<g fill="None" fill-opacity="0.0" stroke="#644F38" stroke-opacity="1.00" stroke-width="0.3"><path d="
M 46.00 91.00 
C 53.60 91.69 61.40 90.31 69.00 91.00
C 65.04 88.07 51.32 89.52 46.00 90.00
C 46.00 90.00 46.24 90.68 46.00 91.00 Z"/>
</g>
<g fill="None" fill-opacity="0.0" stroke="#FCD297" stroke-opacity="1.00" stroke-width="0.3"><path d="
M 70.00 91.00 
C 74.34 97.91 67.19 111.50 72.00 118.00
C 72.09 113.92 71.88 105.67 72.00 102.00 C 72.12 98.33 72.59 88.95 70.00 91.00 Z"/>
</g>
<g fill="None" fill-opacity="0.0" stroke="#BCA188" stroke-opacity="1.00" stroke-width="0.3"><path d="
M 45.00 138.00 
C 45.25 137.75 46.00 138.00 46.00 138.00
C 46.43 137.29 46.00 134.85 46.00 134.00
C 46.00 133.50 46.00 132.50 46.00 132.00
C 46.00 118.33 46.00 104.67 46.00 91.00
C 42.14 96.22 45.90 107.10 45.00 114.00 C 44.10 120.90 45.00 130.83 45.00 138.00 Z"/>
</g>
<g fill="None" fill-opacity="0.0" stroke="#3A3F53" stroke-opacity="1.00" stroke-width="0.3"><path d="
M 46.00 132.00 
C 48.33 119.66 46.33 105.17 47.00 92.00
C 54.29 91.51 61.73 92.66 69.00 92.00
C 69.00 91.50 69.00 91.00 69.00 91.00
C 61.40 90.31 53.60 91.69 46.00 91.00
C 46.00 104.67 46.00 118.33 46.00 132.00 Z"/>
</g>
<g fill="None" fill-opacity="0.0" stroke="#8D91A3" stroke-opacity="1.00" stroke-width="0.3"><path d="
M 69.00 92.00 
C 69.00 98.58 66.34 113.93 70.00 119.00
C 66.90 112.03 70.70 98.71 70.00 91.00
C 70.00 91.00 69.25 90.75 69.00 91.00
C 69.00 91.00 69.00 91.50 69.00 92.00 Z"/>
</g>
<g fill="None" fill-opacity="0.0" stroke="#FCF3E2" stroke-opacity="1.00" stroke-width="0.3"><path d="
M 70.00 119.00 
C 70.08 119.19 71.84 119.23 72.00 119.00
C 72.23 118.66 72.00 118.00 72.00 118.00
C 67.19 111.50 74.34 97.91 70.00 91.00
C 70.70 98.71 66.90 112.03 70.00 119.00 Z"/>
</g>
<g fill="None" fill-opacity="0.0" stroke="#495557" stroke-opacity="1.00" stroke-width="0.3"><path d="
M 144.00 106.00 
C 144.76 101.76 144.45 97.24 144.00 93.00
C 144.00 97.30 144.29 101.71 144.00 106.00 Z"/>
</g>
<g fill="None" fill-opacity="0.0" stroke="#5C6B6F" stroke-opacity="1.00" stroke-width="0.3"><path d="
M 32.00 108.00 
C 32.00 107.96 33.00 108.00 33.00 108.00
C 33.00 104.03 32.73 99.96 33.00 96.00
C 32.37 99.49 32.00 103.80 32.00 108.00 Z"/>
</g>
<g fill="None" fill-opacity="0.0" stroke="#C5DDF7" stroke-opacity="1.00" stroke-width="0.3"><path d="
M 176.00 111.00 
C 176.93 108.23 176.75 106.77 176.00 104.00
C 176.26 105.99 176.36 109.03 176.00 111.00 Z"/>
</g>
<g fill="None" fill-opacity="0.0" stroke="#979C99" stroke-opacity="1.00" stroke-width="0.3"><path d="
M 32.00 128.00 
C 32.00 127.96 33.00 128.00 33.00 128.00
C 33.00 121.33 33.00 114.67 33.00 108.00
C 33.00 108.00 32.00 107.96 32.00 108.00
C 32.00 114.67 32.00 121.33 32.00 128.00 Z"/>
</g>
<g fill="None" fill-opacity="0.0" stroke="#605C69" stroke-opacity="1.00" stroke-width="0.3"><path d="
M 117.00 112.00 
C 116.00 113.20 115.51 114.34 114.00 115.00
C 113.30 115.31 112.51 115.76 112.00 116.00
C 115.72 114.06 118.03 113.51 120.00 109.00
C 119.54 109.77 117.62 111.26 117.00 112.00 Z"/>
</g>
<g fill="None" fill-opacity="0.0" stroke="#917872" stroke-opacity="1.00" stroke-width="0.3"><path d="
M 114.00 115.00 
C 115.51 114.34 116.00 113.20 117.00 112.00
C 116.71 112.39 114.43 114.72 114.00 115.00 Z"/>
</g>
<g fill="None" fill-opacity="0.0" stroke="#62523D" stroke-opacity="1.00" stroke-width="0.3"><path d="
M 104.00 118.00 
C 104.00 118.00 104.00 119.00 104.00 119.00
C 104.92 119.00 106.10 119.18 107.00 119.00
C 108.77 118.16 110.45 116.81 112.00 116.00
C 109.55 117.16 106.79 118.00 104.00 118.00 Z"/>
</g>
<g fill="None" fill-opacity="0.0" stroke="#C79050" stroke-opacity="1.00" stroke-width="0.3"><path d="
M 72.00 119.00 
C 81.82 119.89 92.14 119.00 102.00 119.00
C 102.50 119.00 103.50 119.00 104.00 119.00
C 104.00 119.00 104.00 118.00 104.00 118.00
C 93.91 117.09 82.09 117.08 72.00 118.00
C 72.00 118.00 72.23 118.66 72.00 119.00 Z"/>
</g>
<g fill="None" fill-opacity="0.0" stroke="#333B4F" stroke-opacity="1.00" stroke-width="0.3"><path d="
M 107.00 119.00 
C 106.10 119.18 104.92 119.00 104.00 119.00
C 103.50 119.00 102.50 119.00 102.00 119.00
C 95.85 121.62 78.08 121.59 72.00 119.00
C 71.84 119.23 70.08 119.19 70.00 119.00
C 69.35 122.13 79.27 120.71 82.00 121.00 C 84.73 121.29 92.49 120.50 96.00 121.00 C 99.51 121.50 104.07 120.39 107.00 119.00 Z"/>
</g>
<g fill="None" fill-opacity="0.0" stroke="#5F472F" stroke-opacity="1.00" stroke-width="0.3"><path d="
M 102.00 119.00 
C 92.14 119.00 81.82 119.89 72.00 119.00
C 78.08 121.59 95.85 121.62 102.00 119.00 Z"/>
</g>
<g fill="None" fill-opacity="0.0" stroke="#B9AFAB" stroke-opacity="1.00" stroke-width="0.3"><path d="
M 132.00 128.00 
C 134.22 126.35 136.44 124.40 138.00 122.00
C 136.73 123.66 133.66 126.56 132.00 128.00 Z"/>
</g>
<g fill="None" fill-opacity="0.0" stroke="#5D6A79" stroke-opacity="1.00" stroke-width="0.3"><path d="
M 33.00 136.00 
C 32.74 133.39 33.00 130.62 33.00 128.00
C 33.00 128.00 32.00 127.96 32.00 128.00
C 32.00 130.84 32.70 133.80 33.00 136.00 Z"/>
</g>
<g fill="None" fill-opacity="0.0" stroke="#38323B" stroke-opacity="1.00" stroke-width="0.3"><path d="
M 46.00 138.00 
C 52.07 142.49 64.92 138.06 73.00 139.00 C 81.08 139.94 93.56 139.32 102.00 139.00
C 104.99 138.89 107.21 138.62 110.00 138.00
C 112.11 137.53 114.28 136.57 116.00 136.00
C 93.83 139.99 69.96 137.15 47.00 138.00
C 47.91 136.60 46.10 134.73 46.00 134.00
C 46.00 134.85 46.43 137.29 46.00 138.00 Z"/>
</g>
<g fill="None" fill-opacity="0.0" stroke="#CAC0CD" stroke-opacity="1.00" stroke-width="0.3"><path d="
M 33.00 140.00 
C 33.04 139.03 33.11 137.11 33.00 136.00
C 33.18 137.30 32.94 138.69 33.00 140.00 Z"/>
</g>
<g fill="None" fill-opacity="0.0" stroke="#8E6C4A" stroke-opacity="1.00" stroke-width="0.3"><path d="
M 45.00 139.00 
C 48.58 142.70 58.64 139.00 64.00 140.00 C 69.36 141.00 77.18 139.71 83.00 140.00 C 88.82 140.29 96.07 140.23 102.00 140.00
C 102.04 140.00 102.00 139.00 102.00 139.00
C 93.56 139.32 81.08 139.94 73.00 139.00 C 64.92 138.06 52.07 142.49 46.00 138.00
C 46.00 138.00 45.25 137.75 45.00 138.00
C 45.00 138.00 44.75 138.74 45.00 139.00 Z"/>
</g>
<g fill="None" fill-opacity="0.0" stroke="#BD8E5F" stroke-opacity="1.00" stroke-width="0.3"><path d="
M 102.00 139.00 
C 102.00 139.00 102.04 140.00 102.00 140.00
C 104.94 139.89 107.29 139.46 110.00 139.00
C 110.00 139.00 109.86 138.05 110.00 138.00
C 107.21 138.62 104.99 138.89 102.00 139.00 Z"/>
</g>
<g fill="None" fill-opacity="0.0" stroke="#AAA09F" stroke-opacity="1.00" stroke-width="0.3"><path d="
M 64.00 173.00 
C 76.18 169.02 88.01 165.82 100.00 161.00
C 100.00 161.00 99.78 160.12 100.00 160.00
C 88.60 164.92 75.69 169.84 64.00 173.00 Z"/>
</g>
<g fill="None" fill-opacity="0.0" stroke="#49474F" stroke-opacity="1.00" stroke-width="0.3"><path d="
M 46.00 174.00 
C 46.00 174.00 46.24 173.20 46.00 173.00
C 44.68 172.84 44.86 172.62 44.00 172.00
C 42.94 171.24 40.78 170.09 40.00 169.00
C 41.25 171.19 43.48 173.60 46.00 174.00 Z"/>
</g>
<g fill="None" fill-opacity="0.0" stroke="#837564" stroke-opacity="1.00" stroke-width="0.3"><path d="
M 56.00 174.00 
C 56.50 174.00 57.00 174.00 57.00 174.00
C 58.32 174.00 59.68 174.09 61.00 174.00
C 61.22 173.87 61.00 173.00 61.00 173.00
C 59.11 172.99 57.25 173.83 56.00 174.00 Z"/>
</g>
<g fill="None" fill-opacity="0.0" stroke="#595A67" stroke-opacity="1.00" stroke-width="0.3"><path d="
M 61.00 174.00 
C 62.45 173.90 63.05 173.31 64.00 173.00
C 63.17 173.22 61.86 173.00 61.00 173.00
C 61.00 173.00 61.22 173.87 61.00 174.00 Z"/>
</g>
<g fill="None" fill-opacity="0.0" stroke="#414152" stroke-opacity="1.00" stroke-width="0.3"><path d="
M 57.00 174.00 
C 57.00 174.00 56.50 174.00 56.00 174.00
C 53.33 174.00 50.67 174.00 48.00 174.00
C 51.26 175.38 53.85 174.43 57.00 174.00 Z"/>
</g>
<g fill="#244582" fill-opacity="1.00" stroke="None">
<path d="
M 0.00 200.00 
L 200.00 200.00
L 200.00 0.00
L 0.00 0.00
L 0.00 200.00
M 70.00 25.00 
C 80.50 24.45 91.71 33.81 101.08 37.92 C 110.44 42.04 119.51 50.17 128.23 55.77 C 136.95 61.37 145.03 69.19 153.00 76.00
C 154.46 77.25 155.71 78.73 157.00 80.00
C 158.22 81.01 159.03 81.83 160.00 83.00
C 162.62 85.67 165.58 88.17 168.00 91.00
C 171.50 95.09 174.64 98.98 176.00 104.00
C 176.75 106.77 176.93 108.23 176.00 111.00
C 171.22 125.15 153.33 131.85 141.77 139.77 C 130.21 147.69 113.25 155.67 100.00 161.00
C 88.01 165.82 76.18 169.02 64.00 173.00
C 63.05 173.31 62.45 173.90 61.00 174.00
C 59.68 174.09 58.32 174.00 57.00 174.00
C 53.85 174.43 51.26 175.38 48.00 174.00
C 47.50 174.00 46.49 174.08 46.00 174.00
C 43.48 173.60 41.25 171.19 40.00 169.00
C 35.66 161.38 33.38 148.80 33.00 140.00
C 32.94 138.69 33.18 137.30 33.00 136.00
C 32.70 133.80 32.00 130.84 32.00 128.00
C 32.00 121.33 32.00 114.67 32.00 108.00
C 32.00 103.80 32.37 99.49 33.00 96.00
C 34.39 75.61 37.14 53.34 46.00 35.00
C 46.61 33.73 47.16 32.11 48.00 31.00
C 49.21 29.12 51.00 26.98 53.00 26.00
C 53.40 25.80 54.00 26.00 54.00 26.00
C 54.83 25.21 54.94 24.61 56.00 24.00
C 60.54 21.40 65.88 23.59 70.00 25.00 Z"/>
</g>
<g fill="#363F50" fill-opacity="1.00" stroke="None">
<path d="
M 56.00 24.00 
C 58.01 23.35 61.87 23.84 64.00 24.00
C 65.93 24.14 68.30 24.04 70.00 25.00
C 65.88 23.59 60.54 21.40 56.00 24.00 Z"/>
</g>
<g fill="#895723" fill-opacity="1.00" stroke="None">
<path d="
M 54.00 26.00 
C 54.16 25.77 55.00 26.00 55.00 26.00
C 62.51 20.44 77.35 30.14 85.22 32.78 C 93.10 35.42 102.97 42.92 110.75 47.25 C 118.52 51.58 125.96 58.31 133.25 63.75 C 140.53 69.19 148.49 75.21 154.75 82.25 C 161.01 89.28 169.91 95.26 172.77 104.23 C 175.63 113.20 164.64 120.21 157.77 125.77 C 150.90 131.33 141.89 136.96 133.75 141.75 C 125.62 146.54 116.56 150.21 107.77 154.77 C 98.99 159.33 88.75 162.96 78.99 165.99 C 69.23 169.03 57.13 174.37 46.00 173.00
C 46.24 173.20 46.00 174.00 46.00 174.00
C 46.49 174.08 47.50 174.00 48.00 174.00
C 50.67 174.00 53.33 174.00 56.00 174.00
C 57.25 173.83 59.11 172.99 61.00 173.00
C 61.86 173.00 63.17 173.22 64.00 173.00
C 75.69 169.84 88.60 164.92 100.00 160.00
C 112.43 154.64 130.53 146.96 141.08 139.08 C 151.62 131.19 171.87 123.90 174.78 109.78 C 177.68 95.66 157.28 83.51 148.25 73.75 C 139.22 64.00 123.79 54.94 112.30 46.70 C 100.82 38.46 84.04 29.37 70.00 26.00
C 68.18 25.56 65.42 24.23 64.00 24.00
C 61.87 23.84 58.01 23.35 56.00 24.00
C 54.94 24.61 54.83 25.21 54.00 26.00 Z"/>
</g>
<g fill="#907763" fill-opacity="1.00" stroke="None">
<path d="
M 70.00 26.00 
C 69.93 25.99 70.00 25.00 70.00 25.00
C 68.30 24.04 65.93 24.14 64.00 24.00
C 65.42 24.23 68.18 25.56 70.00 26.00 Z"/>
</g>
<g fill="#F59014" fill-opacity="1.00" stroke="None">
<path d="
M 55.00 26.00 
C 56.38 27.32 49.01 33.42 48.00 35.00
C 38.22 55.92 36.08 79.66 35.00 103.00 C 33.92 126.34 33.08 152.71 44.00 172.00
C 44.86 172.62 44.68 172.84 46.00 173.00
C 57.13 174.37 69.23 169.03 78.99 165.99 C 88.75 162.96 98.99 159.33 107.77 154.77 C 116.56 150.21 125.62 146.54 133.75 141.75 C 141.89 136.96 150.90 131.33 157.77 125.77 C 164.64 120.21 175.63 113.20 172.77 104.23 C 169.91 95.26 161.01 89.28 154.75 82.25 C 148.49 75.21 140.53 69.19 133.25 63.75 C 125.96 58.31 118.52 51.58 110.75 47.25 C 102.97 42.92 93.10 35.42 85.22 32.78 C 77.35 30.14 62.51 20.44 55.00 26.00
M 104.00 61.00 
C 107.33 61.23 110.61 61.54 114.00 62.00
C 133.06 64.60 148.38 82.27 147.00 102.00 C 145.62 121.73 128.61 135.85 110.00 139.00
C 107.29 139.46 104.94 139.89 102.00 140.00
C 96.07 140.23 88.82 140.29 83.00 140.00 C 77.18 139.71 69.36 141.00 64.00 140.00 C 58.64 139.00 48.58 142.70 45.00 139.00
C 42.10 136.21 44.40 127.09 44.00 123.00 C 43.60 118.91 43.65 109.75 44.00 106.00 C 44.35 102.25 41.87 90.88 46.00 90.00
C 51.32 89.52 65.04 88.07 69.00 91.00
C 69.25 90.75 70.00 91.00 70.00 91.00
C 72.59 88.95 72.12 98.33 72.00 102.00 C 71.88 105.67 72.09 113.92 72.00 118.00
C 82.09 117.08 93.91 117.09 104.00 118.00
C 106.79 118.00 109.55 117.16 112.00 116.00
C 112.51 115.76 113.30 115.31 114.00 115.00
C 114.43 114.72 116.71 112.39 117.00 112.00
C 125.75 100.43 117.29 88.46 107.00 83.00
C 105.82 82.59 105.35 82.10 104.00 82.00
C 103.50 81.96 102.50 82.00 102.00 82.00
C 83.09 82.00 63.47 82.83 45.00 81.00
C 49.16 73.24 55.47 66.29 61.00 60.00
C 66.79 57.34 76.63 61.17 83.00 60.00 C 89.37 58.83 98.35 59.99 104.00 61.00 Z"/>
</g>
<g fill="#CCC4C2" fill-opacity="1.00" stroke="None">
<path d="
M 70.00 26.00 
C 84.04 29.37 100.82 38.46 112.30 46.70 C 123.79 54.94 139.22 64.00 148.25 73.75 C 157.28 83.51 177.68 95.66 174.78 109.78 C 171.87 123.90 151.62 131.19 141.08 139.08 C 130.53 146.96 112.43 154.64 100.00 160.00
C 99.78 160.12 100.00 161.00 100.00 161.00
C 113.25 155.67 130.21 147.69 141.77 139.77 C 153.33 131.85 171.22 125.15 176.00 111.00
C 176.36 109.03 176.26 105.99 176.00 104.00
C 174.64 98.98 171.50 95.09 168.00 91.00
C 165.34 88.34 162.40 85.89 160.00 83.00
C 159.03 81.83 158.22 81.01 157.00 80.00
C 155.49 78.75 154.30 77.30 153.00 76.00
C 145.03 69.19 136.95 61.37 128.23 55.77 C 119.51 50.17 110.44 42.04 101.08 37.92 C 91.71 33.81 80.50 24.45 70.00 25.00
C 70.00 25.00 69.93 25.99 70.00 26.00 Z"/>
</g>
<g fill="#686466" fill-opacity="1.00" stroke="None">
<path d="
M 48.00 31.00 
C 48.18 30.76 49.00 31.00 49.00 31.00
C 50.23 29.25 51.81 27.71 53.00 26.00
C 51.00 26.98 49.21 29.12 48.00 31.00 Z"/>
</g>
<g fill="#ECDABE" fill-opacity="1.00" stroke="None">
<path d="
M 49.00 31.00 
C 48.11 32.26 46.71 33.88 46.00 35.00
C 37.14 53.34 34.39 75.61 33.00 96.00
C 32.73 99.96 33.00 104.03 33.00 108.00
C 33.00 114.67 33.00 121.33 33.00 128.00
C 33.00 130.62 32.74 133.39 33.00 136.00
C 33.11 137.11 33.04 139.03 33.00 140.00
C 33.38 148.80 35.66 161.38 40.00 169.00
C 40.78 170.09 42.94 171.24 44.00 172.00
C 33.08 152.71 33.92 126.34 35.00 103.00 C 36.08 79.66 38.22 55.92 48.00 35.00
C 49.62 31.54 51.84 29.09 54.00 26.00
C 54.00 26.00 53.40 25.80 53.00 26.00
C 51.81 27.71 50.23 29.25 49.00 31.00 Z"/>
</g>
<g fill="#F4B866" fill-opacity="1.00" stroke="None">
<path d="
M 48.00 35.00 
C 49.01 33.42 56.38 27.32 55.00 26.00
C 55.00 26.00 54.16 25.77 54.00 26.00
C 51.84 29.09 49.62 31.54 48.00 35.00 Z"/>
</g>
<g fill="#A3A0AA" fill-opacity="1.00" stroke="None">
<path d="
M 46.00 35.00 
C 46.71 33.88 48.11 32.26 49.00 31.00
C 49.00 31.00 48.18 30.76 48.00 31.00
C 47.16 32.11 46.61 33.73 46.00 35.00 Z"/>
</g>
<g fill="#B58856" fill-opacity="1.00" stroke="None">
<path d="
M 102.00 82.00 
C 94.13 78.66 84.00 81.95 75.00 81.00 C 66.00 80.05 55.17 81.72 46.00 81.00
C 46.41 80.17 46.97 79.13 48.00 79.00
C 48.59 77.79 49.38 76.00 50.00 75.00
C 51.09 73.24 52.74 72.37 54.00 71.00
C 54.72 70.05 55.35 68.94 56.00 68.00
C 57.39 65.99 58.73 64.05 60.00 62.00
C 60.12 61.80 60.93 60.03 61.00 60.00
C 55.47 66.29 49.16 73.24 45.00 81.00
C 63.47 82.83 83.09 82.00 102.00 82.00 Z"/>
</g>
<g fill="#95734D" fill-opacity="1.00" stroke="None">
<path d="
M 60.00 62.00 
C 60.22 61.75 61.00 62.00 61.00 62.00
C 65.73 58.50 75.74 61.60 82.00 61.00 C 88.26 60.40 97.53 60.56 104.00 61.00
C 98.35 59.99 89.37 58.83 83.00 60.00 C 76.63 61.17 66.79 57.34 61.00 60.00
C 60.93 60.03 60.12 61.80 60.00 62.00 Z"/>
</g>
<g fill="#393639" fill-opacity="1.00" stroke="None">
<path d="
M 61.00 62.00 
C 68.70 58.64 80.56 63.55 89.00 62.00 C 97.44 60.45 107.93 62.61 116.00 64.00
C 115.53 63.80 114.40 62.14 114.00 62.00
C 110.61 61.54 107.33 61.23 104.00 61.00
C 97.53 60.56 88.26 60.40 82.00 61.00 C 75.74 61.60 65.73 58.50 61.00 62.00 Z"/>
</g>
<g fill="#685D67" fill-opacity="1.00" stroke="None">
<path d="
M 56.00 68.00 
C 57.80 65.95 59.61 64.48 61.00 62.00
C 61.00 62.00 60.22 61.75 60.00 62.00
C 58.73 64.05 57.39 65.99 56.00 68.00 Z"/>
</g>
<g fill="#223E74" fill-opacity="1.00" stroke="None">
<path d="
M 56.00 68.00 
C 55.35 68.94 54.72 70.05 54.00 71.00
C 52.91 72.44 50.94 73.73 50.00 75.00
C 49.38 76.00 48.59 77.79 48.00 79.00
C 55.68 77.67 67.25 80.95 76.00 80.00 C 84.75 79.05 95.68 79.31 104.00 81.00
C 110.87 82.40 116.91 85.25 120.00 92.00
C 122.53 97.53 122.45 103.40 120.00 109.00
C 118.03 113.51 115.72 114.06 112.00 116.00
C 110.45 116.81 108.77 118.16 107.00 119.00
C 104.07 120.39 99.51 121.50 96.00 121.00 C 92.49 120.50 84.73 121.29 82.00 121.00 C 79.27 120.71 69.35 122.13 70.00 119.00
C 66.34 113.93 69.00 98.58 69.00 92.00
C 61.73 92.66 54.29 91.51 47.00 92.00
C 46.33 105.17 48.33 119.66 46.00 132.00
C 46.00 132.50 46.00 133.50 46.00 134.00
C 46.10 134.73 47.91 136.60 47.00 138.00
C 69.96 137.15 93.83 139.99 116.00 136.00
C 121.82 134.77 127.18 131.58 132.00 128.00
C 133.66 126.56 136.73 123.66 138.00 122.00
C 140.94 117.50 143.62 111.54 144.00 106.00
C 144.29 101.71 144.00 97.30 144.00 93.00
C 144.00 91.42 144.28 89.55 144.00 88.00
C 143.83 87.40 142.40 85.82 142.00 85.00
C 136.80 74.46 127.85 66.04 116.00 64.00
C 107.93 62.61 97.44 60.45 89.00 62.00 C 80.56 63.55 68.70 58.64 61.00 62.00
C 59.61 64.48 57.80 65.95 56.00 68.00 Z"/>
</g>
<g fill="#E6D0AE" fill-opacity="1.00" stroke="None">
<path d="
M 116.00 64.00 
C 127.85 66.04 136.80 74.46 142.00 85.00
C 142.97 86.42 143.62 85.95 144.00 88.00
C 144.28 89.55 144.00 91.42 144.00 93.00
C 144.45 97.24 144.76 101.76 144.00 106.00
C 143.62 111.54 140.94 117.50 138.00 122.00
C 136.44 124.40 134.22 126.35 132.00 128.00
C 127.18 131.58 121.82 134.77 116.00 136.00
C 114.28 136.57 112.11 137.53 110.00 138.00
C 109.86 138.05 110.00 139.00 110.00 139.00
C 128.61 135.85 145.62 121.73 147.00 102.00 C 148.38 82.27 133.06 64.60 114.00 62.00
C 114.40 62.14 115.53 63.80 116.00 64.00 Z"/>
</g>
<g fill="#917871" fill-opacity="1.00" stroke="None">
<path d="
M 50.00 75.00 
C 50.94 73.73 52.91 72.44 54.00 71.00
C 52.74 72.37 51.09 73.24 50.00 75.00 Z"/>
</g>
<g fill="#8E97B3" fill-opacity="1.00" stroke="None">
<path d="
M 157.00 80.00 
C 155.71 78.73 154.46 77.25 153.00 76.00
C 154.30 77.30 155.49 78.75 157.00 80.00 Z"/>
</g>
<g fill="#4C3316" fill-opacity="1.00" stroke="None">
<path d="
M 102.00 82.00 
C 102.50 82.00 103.50 81.96 104.00 82.00
C 103.77 81.86 104.00 81.00 104.00 81.00
C 95.68 79.31 84.75 79.05 76.00 80.00 C 67.25 80.95 55.68 77.67 48.00 79.00
C 46.97 79.13 46.41 80.17 46.00 81.00
C 55.17 81.72 66.00 80.05 75.00 81.00 C 84.00 81.95 94.13 78.66 102.00 82.00 Z"/>
</g>
<g fill="#4E4B50" fill-opacity="1.00" stroke="None">
<path d="
M 104.00 82.00 
C 105.35 82.10 105.82 82.59 107.00 83.00
C 112.03 84.75 117.17 87.09 120.00 92.00
C 116.91 85.25 110.87 82.40 104.00 81.00
C 104.00 81.00 103.77 81.86 104.00 82.00 Z"/>
</g>
<g fill="#B4926B" fill-opacity="1.00" stroke="None">
<path d="
M 117.00 112.00 
C 117.62 111.26 119.54 109.77 120.00 109.00
C 122.45 103.40 122.53 97.53 120.00 92.00
C 117.17 87.09 112.03 84.75 107.00 83.00
C 117.29 88.46 125.75 100.43 117.00 112.00 Z"/>
</g>
<g fill="#9BA7C0" fill-opacity="1.00" stroke="None">
<path d="
M 168.00 91.00 
C 165.58 88.17 162.62 85.67 160.00 83.00
C 162.40 85.89 165.34 88.34 168.00 91.00 Z"/>
</g>
<g fill="#C4C8DB" fill-opacity="1.00" stroke="None">
<path d="
M 144.00 88.00 
C 143.62 85.95 142.97 86.42 142.00 85.00
C 142.40 85.82 143.83 87.40 144.00 88.00 Z"/>
</g>
<g fill="#D69E5B" fill-opacity="1.00" stroke="None">
<path d="
M 45.00 139.00 
C 44.75 138.74 45.00 138.00 45.00 138.00
C 45.00 130.83 44.10 120.90 45.00 114.00 C 45.90 107.10 42.14 96.22 46.00 91.00
C 46.24 90.68 46.00 90.00 46.00 90.00
C 41.87 90.88 44.35 102.25 44.00 106.00 C 43.65 109.75 43.60 118.91 44.00 123.00 C 44.40 127.09 42.10 136.21 45.00 139.00 Z"/>
</g>
<g fill="#644F38" fill-opacity="1.00" stroke="None">
<path d="
M 46.00 91.00 
C 53.60 91.69 61.40 90.31 69.00 91.00
C 65.04 88.07 51.32 89.52 46.00 90.00
C 46.00 90.00 46.24 90.68 46.00 91.00 Z"/>
</g>
<g fill="#FCD297" fill-opacity="1.00" stroke="None">
<path d="
M 70.00 91.00 
C 74.34 97.91 67.19 111.50 72.00 118.00
C 72.09 113.92 71.88 105.67 72.00 102.00 C 72.12 98.33 72.59 88.95 70.00 91.00 Z"/>
</g>
<g fill="#BCA188" fill-opacity="1.00" stroke="None">
<path d="
M 45.00 138.00 
C 45.25 137.75 46.00 138.00 46.00 138.00
C 46.43 137.29 46.00 134.85 46.00 134.00
C 46.00 133.50 46.00 132.50 46.00 132.00
C 46.00 118.33 46.00 104.67 46.00 91.00
C 42.14 96.22 45.90 107.10 45.00 114.00 C 44.10 120.90 45.00 130.83 45.00 138.00 Z"/>
</g>
<g fill="#3A3F53" fill-opacity="1.00" stroke="None">
<path d="
M 46.00 132.00 
C 48.33 119.66 46.33 105.17 47.00 92.00
C 54.29 91.51 61.73 92.66 69.00 92.00
C 69.00 91.50 69.00 91.00 69.00 91.00
C 61.40 90.31 53.60 91.69 46.00 91.00
C 46.00 104.67 46.00 118.33 46.00 132.00 Z"/>
</g>
<g fill="#8D91A3" fill-opacity="1.00" stroke="None">
<path d="
M 69.00 92.00 
C 69.00 98.58 66.34 113.93 70.00 119.00
C 66.90 112.03 70.70 98.71 70.00 91.00
C 70.00 91.00 69.25 90.75 69.00 91.00
C 69.00 91.00 69.00 91.50 69.00 92.00 Z"/>
</g>
<g fill="#FCF3E2" fill-opacity="1.00" stroke="None">
<path d="
M 70.00 119.00 
C 70.08 119.19 71.84 119.23 72.00 119.00
C 72.23 118.66 72.00 118.00 72.00 118.00
C 67.19 111.50 74.34 97.91 70.00 91.00
C 70.70 98.71 66.90 112.03 70.00 119.00 Z"/>
</g>
<g fill="#495557" fill-opacity="1.00" stroke="None">
<path d="
M 144.00 106.00 
C 144.76 101.76 144.45 97.24 144.00 93.00
C 144.00 97.30 144.29 101.71 144.00 106.00 Z"/>
</g>
<g fill="#5C6B6F" fill-opacity="1.00" stroke="None">
<path d="
M 32.00 108.00 
C 32.00 107.96 33.00 108.00 33.00 108.00
C 33.00 104.03 32.73 99.96 33.00 96.00
C 32.37 99.49 32.00 103.80 32.00 108.00 Z"/>
</g>
<g fill="#C5DDF7" fill-opacity="1.00" stroke="None">
<path d="
M 176.00 111.00 
C 176.93 108.23 176.75 106.77 176.00 104.00
C 176.26 105.99 176.36 109.03 176.00 111.00 Z"/>
</g>
<g fill="#979C99" fill-opacity="1.00" stroke="None">
<path d="
M 32.00 128.00 
C 32.00 127.96 33.00 128.00 33.00 128.00
C 33.00 121.33 33.00 114.67 33.00 108.00
C 33.00 108.00 32.00 107.96 32.00 108.00
C 32.00 114.67 32.00 121.33 32.00 128.00 Z"/>
</g>
<g fill="#605C69" fill-opacity="1.00" stroke="None">
<path d="
M 117.00 112.00 
C 116.00 113.20 115.51 114.34 114.00 115.00
C 113.30 115.31 112.51 115.76 112.00 116.00
C 115.72 114.06 118.03 113.51 120.00 109.00
C 119.54 109.77 117.62 111.26 117.00 112.00 Z"/>
</g>
<g fill="#917872" fill-opacity="1.00" stroke="None">
<path d="
M 114.00 115.00 
C 115.51 114.34 116.00 113.20 117.00 112.00
C 116.71 112.39 114.43 114.72 114.00 115.00 Z"/>
</g>
<g fill="#62523D" fill-opacity="1.00" stroke="None">
<path d="
M 104.00 118.00 
C 104.00 118.00 104.00 119.00 104.00 119.00
C 104.92 119.00 106.10 119.18 107.00 119.00
C 108.77 118.16 110.45 116.81 112.00 116.00
C 109.55 117.16 106.79 118.00 104.00 118.00 Z"/>
</g>
<g fill="#C79050" fill-opacity="1.00" stroke="None">
<path d="
M 72.00 119.00 
C 81.82 119.89 92.14 119.00 102.00 119.00
C 102.50 119.00 103.50 119.00 104.00 119.00
C 104.00 119.00 104.00 118.00 104.00 118.00
C 93.91 117.09 82.09 117.08 72.00 118.00
C 72.00 118.00 72.23 118.66 72.00 119.00 Z"/>
</g>
<g fill="#333B4F" fill-opacity="1.00" stroke="None">
<path d="
M 107.00 119.00 
C 106.10 119.18 104.92 119.00 104.00 119.00
C 103.50 119.00 102.50 119.00 102.00 119.00
C 95.85 121.62 78.08 121.59 72.00 119.00
C 71.84 119.23 70.08 119.19 70.00 119.00
C 69.35 122.13 79.27 120.71 82.00 121.00 C 84.73 121.29 92.49 120.50 96.00 121.00 C 99.51 121.50 104.07 120.39 107.00 119.00 Z"/>
</g>
<g fill="#5F472F" fill-opacity="1.00" stroke="None">
<path d="
M 102.00 119.00 
C 92.14 119.00 81.82 119.89 72.00 119.00
C 78.08 121.59 95.85 121.62 102.00 119.00 Z"/>
</g>
<g fill="#B9AFAB" fill-opacity="1.00" stroke="None">
<path d="
M 132.00 128.00 
C 134.22 126.35 136.44 124.40 138.00 122.00
C 136.73 123.66 133.66 126.56 132.00 128.00 Z"/>
</g>
<g fill="#5D6A79" fill-opacity="1.00" stroke="None">
<path d="
M 33.00 136.00 
C 32.74 133.39 33.00 130.62 33.00 128.00
C 33.00 128.00 32.00 127.96 32.00 128.00
C 32.00 130.84 32.70 133.80 33.00 136.00 Z"/>
</g>
<g fill="#38323B" fill-opacity="1.00" stroke="None">
<path d="
M 46.00 138.00 
C 52.07 142.49 64.92 138.06 73.00 139.00 C 81.08 139.94 93.56 139.32 102.00 139.00
C 104.99 138.89 107.21 138.62 110.00 138.00
C 112.11 137.53 114.28 136.57 116.00 136.00
C 93.83 139.99 69.96 137.15 47.00 138.00
C 47.91 136.60 46.10 134.73 46.00 134.00
C 46.00 134.85 46.43 137.29 46.00 138.00 Z"/>
</g>
<g fill="#CAC0CD" fill-opacity="1.00" stroke="None">
<path d="
M 33.00 140.00 
C 33.04 139.03 33.11 137.11 33.00 136.00
C 33.18 137.30 32.94 138.69 33.00 140.00 Z"/>
</g>
<g fill="#8E6C4A" fill-opacity="1.00" stroke="None">
<path d="
M 45.00 139.00 
C 48.58 142.70 58.64 139.00 64.00 140.00 C 69.36 141.00 77.18 139.71 83.00 140.00 C 88.82 140.29 96.07 140.23 102.00 140.00
C 102.04 140.00 102.00 139.00 102.00 139.00
C 93.56 139.32 81.08 139.94 73.00 139.00 C 64.92 138.06 52.07 142.49 46.00 138.00
C 46.00 138.00 45.25 137.75 45.00 138.00
C 45.00 138.00 44.75 138.74 45.00 139.00 Z"/>
</g>
<g fill="#BD8E5F" fill-opacity="1.00" stroke="None">
<path d="
M 102.00 139.00 
C 102.00 139.00 102.04 140.00 102.00 140.00
C 104.94 139.89 107.29 139.46 110.00 139.00
C 110.00 139.00 109.86 138.05 110.00 138.00
C 107.21 138.62 104.99 138.89 102.00 139.00 Z"/>
</g>
<g fill="#AAA09F" fill-opacity="1.00" stroke="None">
<path d="
M 64.00 173.00 
C 76.18 169.02 88.01 165.82 100.00 161.00
C 100.00 161.00 99.78 160.12 100.00 160.00
C 88.60 164.92 75.69 169.84 64.00 173.00 Z"/>
</g>
<g fill="#49474F" fill-opacity="1.00" stroke="None">
<path d="
M 46.00 174.00 
C 46.00 174.00 46.24 173.20 46.00 173.00
C 44.68 172.84 44.86 172.62 44.00 172.00
C 42.94 171.24 40.78 170.09 40.00 169.00
C 41.25 171.19 43.48 173.60 46.00 174.00 Z"/>
</g>
<g fill="#837564" fill-opacity="1.00" stroke="None">
<path d="
M 56.00 174.00 
C 56.50 174.00 57.00 174.00 57.00 174.00
C 58.32 174.00 59.68 174.09 61.00 174.00
C 61.22 173.87 61.00 173.00 61.00 173.00
C 59.11 172.99 57.25 173.83 56.00 174.00 Z"/>
</g>
<g fill="#595A67" fill-opacity="1.00" stroke="None">
<path d="
M 61.00 174.00 
C 62.45 173.90 63.05 173.31 64.00 173.00
C 63.17 173.22 61.86 173.00 61.00 173.00
C 61.00 173.00 61.22 173.87 61.00 174.00 Z"/>
</g>
<g fill="#414152" fill-opacity="1.00" stroke="None">
<path d="
M 57.00 174.00 
C 57.00 174.00 56.50 174.00 56.00 174.00
C 53.33 174.00 50.67 174.00 48.00 174.00
C 51.26 175.38 53.85 174.43 57.00 174.00 Z"/>
</g>
</svg>