<svg xmlns="http://www.w3.org/2000/svg" xmlns:v="https://svgstorm.com"
viewBox = "0 0 200 200"
width="200"
height="200">
<g fill="None" fill-opacity="0.0" stroke="#FDFDFD" stroke-opacity="1.00" stroke-width="0.3"><path d="
M 0.00 200.00 
L 200.00 200.00
L 200.00 0.00
L 0.00 0.00
L 0.00 200.00
M 112.00 53.00 
C 113.58 51.97 114.86 50.49 117.00 51.00
C 113.38 54.04 110.00 58.65 105.00 60.00
C 93.49 41.95 62.24 23.82 50.00 50.00
C 49.43 57.74 47.62 66.71 54.30 72.70 C 60.98 78.68 67.91 80.00 77.00 80.00
C 77.50 80.00 78.53 79.88 79.00 80.00
C 82.60 78.81 86.37 75.81 90.00 74.00
C 90.02 78.66 83.72 79.96 80.00 81.00
C 79.51 81.08 79.00 81.00 79.00 81.00
C 75.83 85.14 65.44 83.34 62.00 81.00
C 61.66 80.77 60.48 81.11 60.00 81.00
C 57.39 80.42 55.93 79.26 54.00 78.00
C 44.36 71.72 41.05 61.98 42.00 50.00
C 42.96 37.94 55.12 27.12 67.00 26.00
C 85.05 22.20 103.64 35.21 113.00 50.00
C 112.98 51.12 110.03 52.33 112.00 53.00
M 142.00 32.00 
C 149.80 35.81 154.06 43.18 156.00 51.00
C 156.90 54.64 157.58 59.69 157.00 64.00
C 156.35 68.84 153.86 70.59 151.00 74.00
C 147.44 79.41 143.20 82.30 137.00 84.00
C 128.65 87.24 122.34 87.35 114.00 84.00
C 110.60 83.16 107.10 81.58 104.00 80.00
C 101.81 78.88 100.36 78.09 99.00 76.00
C 98.56 75.84 98.00 76.00 98.00 76.00
C 96.41 75.46 96.04 73.88 95.00 73.00
C 93.33 71.86 79.81 61.60 83.00 60.00
C 84.62 52.32 94.42 51.22 98.25 56.75 C 102.07 62.29 108.54 67.27 114.00 70.00
C 115.88 70.94 117.98 70.65 119.00 73.00
C 119.18 73.42 119.00 74.00 119.00 74.00
C 119.50 74.04 120.50 73.99 121.00 74.00
C 129.76 74.23 146.95 74.19 150.00 62.00
C 150.19 60.74 150.00 59.28 150.00 58.00
C 150.00 56.33 150.00 54.67 150.00 53.00
C 150.00 52.02 150.10 50.97 150.00 50.00
C 149.54 48.45 147.83 45.74 147.00 44.00
C 145.22 40.28 143.19 38.96 140.00 37.00
C 138.70 36.20 137.14 34.48 136.00 34.00
C 135.50 33.95 134.47 34.11 134.00 34.00
C 124.82 31.88 116.24 33.76 108.00 37.00
C 108.83 35.53 110.07 33.75 112.00 34.00
C 120.73 26.66 131.70 25.08 142.00 32.00
M 32.00 128.00 
C 31.54 129.59 25.48 129.66 25.00 128.00
C 21.54 120.22 28.03 114.63 25.00 106.00 C 21.97 97.37 34.45 96.28 32.00 105.00 C 29.55 113.72 35.44 120.26 32.00 128.00
M 64.00 99.00 
C 67.31 99.81 69.63 100.96 71.00 104.00
C 72.26 106.79 72.83 111.84 72.00 115.00 C 71.17 118.16 73.81 125.37 72.00 128.00
C 70.76 129.80 67.96 128.67 66.00 129.00
C 65.53 121.03 67.06 112.57 65.00 105.00
C 64.89 104.53 65.23 103.15 65.00 103.00
C 64.41 102.54 63.70 102.24 63.00 102.00
C 58.62 100.52 55.21 102.35 51.00 102.00
C 47.62 104.05 45.58 113.40 48.00 118.00 C 50.42 122.60 43.87 133.67 41.08 126.92 C 38.30 120.16 40.66 113.41 42.00 108.00
C 42.74 105.00 42.92 104.19 45.00 102.00
C 47.08 99.82 47.01 99.73 50.00 99.00
C 53.33 97.72 60.64 97.70 64.00 99.00
M 94.00 102.00 
C 88.37 103.64 88.46 107.06 89.00 113.00
C 93.67 113.00 98.33 113.00 103.00 113.00
C 101.80 118.75 93.30 114.86 89.00 116.00
C 89.00 120.00 89.00 124.00 89.00 128.00
C 87.87 129.62 83.12 129.60 82.00 128.00
C 79.13 123.91 83.40 114.05 82.00 109.00 C 80.60 103.95 88.48 99.98 92.00 99.00
C 95.47 98.03 99.23 97.87 103.00 98.00
C 103.75 103.11 96.72 99.94 94.00 102.00
M 118.00 99.00 
C 119.53 101.08 118.17 110.16 118.00 113.00 C 117.83 115.84 119.66 125.75 118.00 128.00
C 117.20 129.09 114.41 129.52 113.00 129.00
C 109.30 127.63 110.85 117.44 111.00 114.00 C 111.15 110.56 109.06 99.46 113.00 98.00
C 114.51 97.44 117.14 97.83 118.00 99.00
M 148.00 99.00 
C 149.65 99.14 149.87 99.54 151.00 100.00
C 153.72 101.11 157.25 101.49 158.00 105.00
C 160.76 109.45 158.54 115.35 160.00 120.00 C 161.46 124.65 156.97 133.75 153.00 128.00
C 148.42 121.35 158.95 106.50 149.00 102.00
C 146.44 103.16 141.47 99.91 138.00 102.00
C 137.12 102.53 135.94 104.30 135.00 105.00
C 134.93 105.49 135.00 106.00 135.00 106.00
C 135.00 110.31 133.57 116.92 135.00 121.00 C 136.43 125.08 131.82 133.54 128.00 128.00
C 125.00 123.66 129.65 114.30 128.00 109.00 C 126.35 103.70 134.68 100.32 138.00 99.00
C 138.43 98.83 139.00 99.00 139.00 99.00
C 141.72 96.99 145.37 98.35 148.00 99.00
M 175.00 99.00 
C 175.20 99.40 175.00 100.00 175.00 100.00
C 175.00 109.33 175.00 118.67 175.00 128.00
C 175.00 128.50 175.00 129.00 175.00 129.00
C 170.82 133.30 167.46 127.59 168.00 124.00 C 168.55 120.41 168.29 112.79 168.00 110.00 C 167.71 107.21 168.46 96.65 170.00 98.00
C 171.17 97.34 174.42 97.85 175.00 99.00
M 75.00 142.00 
C 66.94 137.59 69.18 149.43 69.00 154.00
C 64.29 154.76 64.14 150.44 65.00 146.00 C 65.86 141.56 62.57 140.74 59.00 140.00
C 61.04 137.21 76.03 135.23 75.00 142.00
M 115.00 139.00 
C 116.06 149.30 105.61 137.36 102.26 144.26 C 98.90 151.15 110.99 153.36 114.00 148.00
C 118.59 155.98 101.39 158.92 98.08 149.92 C 94.77 140.92 106.36 134.24 115.00 139.00
M 94.00 140.00 
C 90.91 142.19 85.84 140.43 82.00 141.00
C 79.48 148.48 91.22 141.60 90.00 148.00
C 88.11 145.70 80.09 146.81 82.34 150.68 C 84.59 154.55 91.61 149.70 94.00 153.00
C 89.91 155.24 83.84 153.40 79.00 154.00
C 79.00 149.00 79.00 144.00 79.00 139.00
C 83.83 139.65 89.99 137.69 94.00 140.00
M 135.00 139.00 
C 138.71 141.00 137.20 150.42 136.00 154.00
C 136.24 147.09 130.66 147.56 125.00 148.00
C 125.35 151.15 125.46 155.30 121.00 154.00
C 122.14 149.41 118.59 141.19 123.00 139.00
C 122.43 147.23 136.19 147.36 135.00 139.00 Z"/>
</g>
<g fill="None" fill-opacity="0.0" stroke="#DBDCDD" stroke-opacity="1.00" stroke-width="0.3"><path d="
M 67.00 26.00 
C 74.65 25.28 79.47 28.21 86.00 31.00
C 86.39 35.86 84.68 35.90 80.00 34.00
C 80.54 35.66 82.56 36.33 83.00 38.00
C 91.11 42.15 99.49 49.82 104.00 58.00
C 107.28 58.13 109.99 55.11 112.00 53.00
C 110.03 52.33 112.98 51.12 113.00 50.00
C 103.64 35.21 85.05 22.20 67.00 26.00 Z"/>
</g>
<g fill="None" fill-opacity="0.0" stroke="#BCBCBF" stroke-opacity="1.00" stroke-width="0.3"><path d="
M 42.00 50.00 
C 42.07 54.01 43.48 64.36 46.31 67.69 C 49.13 71.03 54.26 78.28 54.00 78.00
C 55.93 79.26 57.39 80.42 60.00 81.00
C 59.96 80.99 66.58 79.62 62.00 81.00
C 65.44 83.34 75.83 85.14 79.00 81.00
C 77.46 81.10 77.89 80.23 77.00 80.00
C 67.91 80.00 60.98 78.68 54.30 72.70 C 47.62 66.71 49.43 57.74 50.00 50.00
C 51.14 34.52 70.15 31.43 83.00 38.00
C 82.56 36.33 80.54 35.66 80.00 34.00
C 84.68 35.90 86.39 35.86 86.00 31.00
C 79.47 28.21 74.65 25.28 67.00 26.00
C 55.12 27.12 42.96 37.94 42.00 50.00
M 76.00 81.00 
C 73.90 83.08 69.85 81.50 67.00 82.00
C 69.10 79.92 73.15 81.50 76.00 81.00 Z"/>
</g>
<g fill="None" fill-opacity="0.0" stroke="#F8E3C8" stroke-opacity="1.00" stroke-width="0.3"><path d="
M 112.00 34.00 
C 113.86 33.08 115.93 32.26 118.00 32.00
C 124.78 29.37 134.89 28.52 142.00 32.00
C 131.70 25.08 120.73 26.66 112.00 34.00 Z"/>
</g>
<g fill="None" fill-opacity="0.0" stroke="#EE8C2E" stroke-opacity="1.00" stroke-width="0.3"><path d="
M 118.00 32.00 
C 118.49 31.94 119.50 32.00 120.00 32.00
C 123.02 30.71 130.13 29.87 133.00 32.00
C 133.50 32.00 134.00 32.00 134.00 32.00
C 143.98 32.74 150.97 43.69 151.00 53.00
C 151.65 55.03 150.17 56.76 150.00 58.00
C 150.00 59.28 150.19 60.74 150.00 62.00
C 148.22 73.57 129.73 79.93 121.00 74.00
C 120.50 73.99 119.50 74.04 119.00 74.00
C 109.11 73.12 99.83 59.64 94.00 53.00
C 89.99 54.08 86.42 57.55 84.00 61.00
C 94.15 74.50 107.66 82.16 125.00 84.00 C 142.34 85.84 158.27 69.34 156.00 51.00
C 154.06 43.18 149.80 35.81 142.00 32.00
C 134.89 28.52 124.78 29.37 118.00 32.00 Z"/>
</g>
<g fill="None" fill-opacity="0.0" stroke="#B36E28" stroke-opacity="1.00" stroke-width="0.3"><path d="
M 120.00 32.00 
C 124.33 32.00 128.67 32.00 133.00 32.00
C 130.13 29.87 123.02 30.71 120.00 32.00 Z"/>
</g>
<g fill="None" fill-opacity="0.0" stroke="#938C81" stroke-opacity="1.00" stroke-width="0.3"><path d="
M 112.00 34.00 
C 110.07 33.75 108.83 35.53 108.00 37.00
C 116.24 33.76 124.82 31.88 134.00 34.00
C 133.75 33.75 134.23 32.16 134.00 32.00
C 134.00 32.00 133.50 32.00 133.00 32.00
C 128.67 32.00 124.33 32.00 120.00 32.00
C 119.50 32.00 118.49 31.94 118.00 32.00
C 115.93 32.26 113.86 33.08 112.00 34.00 Z"/>
</g>
<g fill="None" fill-opacity="0.0" stroke="#AC7B4C" stroke-opacity="1.00" stroke-width="0.3"><path d="
M 134.00 34.00 
C 134.47 34.11 135.50 33.95 136.00 34.00
C 138.46 34.23 138.41 35.78 140.00 37.00
C 143.19 38.96 145.22 40.28 147.00 44.00
C 148.31 46.03 149.70 47.16 150.00 50.00
C 150.10 50.97 150.00 52.02 150.00 53.00
C 150.27 53.25 151.00 53.00 151.00 53.00
C 150.97 43.69 143.98 32.74 134.00 32.00
C 134.23 32.16 133.75 33.75 134.00 34.00 Z"/>
</g>
<g fill="None" fill-opacity="0.0" stroke="#969798" stroke-opacity="1.00" stroke-width="0.3"><path d="
M 50.00 50.00 
C 62.24 23.82 93.49 41.95 105.00 60.00
C 110.00 58.65 113.38 54.04 117.00 51.00
C 114.86 50.49 113.58 51.97 112.00 53.00
C 109.99 55.11 107.28 58.13 104.00 58.00
C 99.49 49.82 91.11 42.15 83.00 38.00
C 70.15 31.43 51.14 34.52 50.00 50.00 Z"/>
</g>
<g fill="None" fill-opacity="0.0" stroke="#B9A795" stroke-opacity="1.00" stroke-width="0.3"><path d="
M 140.00 37.00 
C 138.41 35.78 138.46 34.23 136.00 34.00
C 137.14 34.48 138.70 36.20 140.00 37.00 Z"/>
</g>
<g fill="None" fill-opacity="0.0" stroke="#DCC3B4" stroke-opacity="1.00" stroke-width="0.3"><path d="
M 150.00 50.00 
C 149.70 47.16 148.31 46.03 147.00 44.00
C 147.83 45.74 149.54 48.45 150.00 50.00 Z"/>
</g>
<g fill="None" fill-opacity="0.0" stroke="#9A9A9C" stroke-opacity="1.00" stroke-width="0.3"><path d="
M 54.00 78.00 
C 54.26 78.28 49.13 71.03 46.31 67.69 C 43.48 64.36 42.07 54.01 42.00 50.00
C 41.05 61.98 44.36 71.72 54.00 78.00 Z"/>
</g>
<g fill="None" fill-opacity="0.0" stroke="#A97B51" stroke-opacity="1.00" stroke-width="0.3"><path d="
M 84.00 61.00 
C 83.80 60.73 82.94 60.29 83.00 60.00
C 79.81 61.60 93.33 71.86 95.00 73.00
C 96.37 73.94 97.06 74.73 98.00 76.00
C 98.00 76.00 98.56 75.84 99.00 76.00
C 101.41 76.87 102.21 78.78 104.00 80.00
C 107.10 81.58 110.60 83.16 114.00 84.00
C 122.09 86.00 128.97 86.21 137.00 84.00
C 143.20 82.30 147.44 79.41 151.00 74.00
C 152.89 71.13 156.24 67.06 157.00 64.00
C 157.58 59.69 156.90 54.64 156.00 51.00
C 158.27 69.34 142.34 85.84 125.00 84.00 C 107.66 82.16 94.15 74.50 84.00 61.00 Z"/>
</g>
<g fill="None" fill-opacity="0.0" stroke="#F6C38F" stroke-opacity="1.00" stroke-width="0.3"><path d="
M 83.00 60.00 
C 82.94 60.29 83.80 60.73 84.00 61.00
C 86.42 57.55 89.99 54.08 94.00 53.00
C 99.83 59.64 109.11 73.12 119.00 74.00
C 119.00 74.00 119.18 73.42 119.00 73.00
C 116.95 72.27 115.69 71.10 114.00 70.00
C 108.54 67.27 102.07 62.29 98.25 56.75 C 94.42 51.22 84.62 52.32 83.00 60.00 Z"/>
</g>
<g fill="None" fill-opacity="0.0" stroke="#D6AC84" stroke-opacity="1.00" stroke-width="0.3"><path d="
M 150.00 58.00 
C 150.17 56.76 151.65 55.03 151.00 53.00
C 151.00 53.00 150.27 53.25 150.00 53.00
C 150.00 54.67 150.00 56.33 150.00 58.00 Z"/>
</g>
<g fill="None" fill-opacity="0.0" stroke="#F9C998" stroke-opacity="1.00" stroke-width="0.3"><path d="
M 121.00 74.00 
C 129.73 79.93 148.22 73.57 150.00 62.00
C 146.95 74.19 129.76 74.23 121.00 74.00 Z"/>
</g>
<g fill="None" fill-opacity="0.0" stroke="#D0BDAB" stroke-opacity="1.00" stroke-width="0.3"><path d="
M 151.00 74.00 
C 153.86 70.59 156.35 68.84 157.00 64.00
C 156.24 67.06 152.89 71.13 151.00 74.00 Z"/>
</g>
<g fill="None" fill-opacity="0.0" stroke="#FFF3D2" stroke-opacity="1.00" stroke-width="0.3"><path d="
M 119.00 73.00 
C 117.98 70.65 115.88 70.94 114.00 70.00
C 115.69 71.10 116.95 72.27 119.00 73.00 Z"/>
</g>
<g fill="None" fill-opacity="0.0" stroke="#BBAEA3" stroke-opacity="1.00" stroke-width="0.3"><path d="
M 98.00 76.00 
C 97.06 74.73 96.37 73.94 95.00 73.00
C 96.04 73.88 96.41 75.46 98.00 76.00 Z"/>
</g>
<g fill="None" fill-opacity="0.0" stroke="#9B9B9A" stroke-opacity="1.00" stroke-width="0.3"><path d="
M 79.00 80.00 
C 79.35 80.09 80.03 80.98 80.00 81.00
C 83.72 79.96 90.02 78.66 90.00 74.00
C 86.37 75.81 82.60 78.81 79.00 80.00 Z"/>
</g>
<g fill="None" fill-opacity="0.0" stroke="#BAADA4" stroke-opacity="1.00" stroke-width="0.3"><path d="
M 104.00 80.00 
C 102.21 78.78 101.41 76.87 99.00 76.00
C 100.36 78.09 101.81 78.88 104.00 80.00 Z"/>
</g>
<g fill="None" fill-opacity="0.0" stroke="#696969" stroke-opacity="1.00" stroke-width="0.3"><path d="
M 60.00 81.00 
C 60.48 81.11 61.66 80.77 62.00 81.00
C 66.58 79.62 59.96 80.99 60.00 81.00 Z"/>
</g>
<g fill="None" fill-opacity="0.0" stroke="#6B6B6B" stroke-opacity="1.00" stroke-width="0.3"><path d="
M 79.00 81.00 
C 79.00 81.00 79.51 81.08 80.00 81.00
C 80.03 80.98 79.35 80.09 79.00 80.00
C 78.53 79.88 77.50 80.00 77.00 80.00
C 77.89 80.23 77.46 81.10 79.00 81.00 Z"/>
</g>
<g fill="None" fill-opacity="0.0" stroke="#7E7E7E" stroke-opacity="1.00" stroke-width="0.3"><path d="
M 76.00 81.00 
C 73.15 81.50 69.10 79.92 67.00 82.00
C 69.85 81.50 73.90 83.08 76.00 81.00 Z"/>
</g>
<g fill="None" fill-opacity="0.0" stroke="#BFB4AA" stroke-opacity="1.00" stroke-width="0.3"><path d="
M 137.00 84.00 
C 128.97 86.21 122.09 86.00 114.00 84.00
C 122.34 87.35 128.65 87.24 137.00 84.00 Z"/>
</g>
<g fill="None" fill-opacity="0.0" stroke="#5E5E5F" stroke-opacity="1.00" stroke-width="0.3"><path d="
M 25.00 128.00 
C 25.08 128.19 26.50 128.00 27.00 128.00
C 30.46 120.20 24.40 108.18 27.00 100.00
C 32.25 100.43 29.50 107.42 30.00 112.00 C 30.50 116.58 29.63 123.23 30.00 128.00
C 30.06 128.17 31.92 128.19 32.00 128.00
C 35.44 120.26 29.55 113.72 32.00 105.00 C 34.45 96.28 21.97 97.37 25.00 106.00 C 28.03 114.63 21.54 120.22 25.00 128.00 Z"/>
</g>
<g fill="None" fill-opacity="0.0" stroke="#636363" stroke-opacity="1.00" stroke-width="0.3"><path d="
M 50.00 99.00 
C 49.41 99.23 48.52 100.72 48.00 101.00
C 51.04 100.16 51.60 102.05 51.00 102.00
C 55.21 102.35 58.62 100.52 63.00 102.00
C 60.70 99.35 64.69 100.58 66.00 101.00
C 65.56 100.71 64.42 99.16 64.00 99.00
C 60.64 97.70 53.33 97.72 50.00 99.00 Z"/>
</g>
<g fill="None" fill-opacity="0.0" stroke="#707070" stroke-opacity="1.00" stroke-width="0.3"><path d="
M 92.00 99.00 
C 93.13 99.34 93.60 101.81 94.00 102.00
C 96.72 99.94 103.75 103.11 103.00 98.00
C 99.23 97.87 95.47 98.03 92.00 99.00 Z"/>
</g>
<g fill="None" fill-opacity="0.0" stroke="#B1B1B1" stroke-opacity="1.00" stroke-width="0.3"><path d="
M 113.00 129.00 
C 110.54 127.63 111.85 116.66 112.00 114.00 C 112.15 111.34 110.34 99.48 113.00 98.00
C 109.06 99.46 111.15 110.56 111.00 114.00 C 110.85 117.44 109.30 127.63 113.00 129.00 Z"/>
</g>
<g fill="None" fill-opacity="0.0" stroke="#767676" stroke-opacity="1.00" stroke-width="0.3"><path d="
M 113.00 129.00 
C 114.41 129.52 117.20 129.09 118.00 128.00
C 116.33 128.00 114.67 128.00 113.00 128.00
C 113.00 118.33 113.00 108.67 113.00 99.00
C 114.67 99.00 116.33 99.00 118.00 99.00
C 117.14 97.83 114.51 97.44 113.00 98.00
C 110.34 99.48 112.15 111.34 112.00 114.00 C 111.85 116.66 110.54 127.63 113.00 129.00 Z"/>
</g>
<g fill="None" fill-opacity="0.0" stroke="#9E9E9E" stroke-opacity="1.00" stroke-width="0.3"><path d="
M 139.00 99.00 
C 141.96 99.00 145.05 98.75 148.00 99.00
C 145.37 98.35 141.72 96.99 139.00 99.00 Z"/>
</g>
<g fill="None" fill-opacity="0.0" stroke="#C0C0C1" stroke-opacity="1.00" stroke-width="0.3"><path d="
M 175.00 129.00 
C 166.03 131.13 167.68 106.18 169.00 100.00
C 169.03 99.87 169.99 98.00 170.00 98.00
C 168.46 96.65 167.71 107.21 168.00 110.00 C 168.29 112.79 168.55 120.41 168.00 124.00 C 167.46 127.59 170.82 133.30 175.00 129.00 Z"/>
</g>
<g fill="None" fill-opacity="0.0" stroke="#8D8D8F" stroke-opacity="1.00" stroke-width="0.3"><path d="
M 169.00 100.00 
C 168.61 99.41 174.48 98.87 175.00 99.00
C 174.42 97.85 171.17 97.34 170.00 98.00
C 169.99 98.00 169.03 99.87 169.00 100.00 Z"/>
</g>
<g fill="None" fill-opacity="0.0" stroke="#A5A5A6" stroke-opacity="1.00" stroke-width="0.3"><path d="
M 45.00 102.00 
C 45.99 101.39 47.10 101.49 48.00 101.00
C 48.52 100.72 49.41 99.23 50.00 99.00
C 47.01 99.73 47.08 99.82 45.00 102.00 Z"/>
</g>
<g fill="None" fill-opacity="0.0" stroke="#A2A2A2" stroke-opacity="1.00" stroke-width="0.3"><path d="
M 66.00 101.00 
C 67.25 101.81 70.08 102.46 71.00 104.00
C 69.63 100.96 67.31 99.81 64.00 99.00
C 64.42 99.16 65.56 100.71 66.00 101.00 Z"/>
</g>
<g fill="None" fill-opacity="0.0" stroke="#4E4E4E" stroke-opacity="1.00" stroke-width="0.3"><path d="
M 82.00 128.00 
C 84.33 128.00 86.67 128.00 89.00 128.00
C 89.00 124.00 89.00 120.00 89.00 116.00
C 93.30 114.86 101.80 118.75 103.00 113.00
C 98.33 113.00 93.67 113.00 89.00 113.00
C 88.46 107.06 88.37 103.64 94.00 102.00
C 93.60 101.81 93.13 99.34 92.00 99.00
C 88.48 99.98 80.60 103.95 82.00 109.00 C 83.40 114.05 79.13 123.91 82.00 128.00 Z"/>
</g>
<g fill="None" fill-opacity="0.0" stroke="#333333" stroke-opacity="1.00" stroke-width="0.3"><path d="
M 118.00 128.00 
C 119.66 125.75 117.83 115.84 118.00 113.00 C 118.17 110.16 119.53 101.08 118.00 99.00
C 116.33 99.00 114.67 99.00 113.00 99.00
C 113.00 108.67 113.00 118.33 113.00 128.00
C 114.67 128.00 116.33 128.00 118.00 128.00 Z"/>
</g>
<g fill="None" fill-opacity="0.0" stroke="#3D3D3E" stroke-opacity="1.00" stroke-width="0.3"><path d="
M 128.00 128.00 
C 129.40 127.49 131.68 128.68 133.00 128.00
C 134.68 121.92 130.31 112.00 134.00 107.00
C 134.22 106.70 134.88 106.26 135.00 106.00
C 135.00 106.00 134.93 105.49 135.00 105.00
C 135.31 102.79 137.37 103.00 138.00 102.00
C 138.91 100.56 138.52 100.49 138.00 99.00
C 134.68 100.32 126.35 103.70 128.00 109.00 C 129.65 114.30 125.00 123.66 128.00 128.00 Z"/>
</g>
<g fill="None" fill-opacity="0.0" stroke="#5D5D5D" stroke-opacity="1.00" stroke-width="0.3"><path d="
M 138.00 102.00 
C 141.47 99.91 146.44 103.16 149.00 102.00
C 149.81 101.63 148.96 100.31 151.00 100.00
C 149.87 99.54 149.65 99.14 148.00 99.00
C 145.05 98.75 141.96 99.00 139.00 99.00
C 139.00 99.00 138.43 98.83 138.00 99.00
C 138.52 100.49 138.91 100.56 138.00 102.00 Z"/>
</g>
<g fill="None" fill-opacity="0.0" stroke="#6D6D6F" stroke-opacity="1.00" stroke-width="0.3"><path d="
M 169.00 100.00 
C 167.68 106.18 166.03 131.13 175.00 129.00
C 175.00 129.00 175.00 128.50 175.00 128.00
C 173.38 128.29 171.63 127.78 170.00 128.00
C 170.00 118.67 170.00 109.33 170.00 100.00
C 171.67 100.00 173.33 100.00 175.00 100.00
C 175.00 100.00 175.20 99.40 175.00 99.00
C 174.48 98.87 168.61 99.41 169.00 100.00 Z"/>
</g>
<g fill="None" fill-opacity="0.0" stroke="#323233" stroke-opacity="1.00" stroke-width="0.3"><path d="
M 27.00 128.00 
C 27.24 128.00 29.95 127.87 30.00 128.00
C 29.63 123.23 30.50 116.58 30.00 112.00 C 29.50 107.42 32.25 100.43 27.00 100.00
C 24.40 108.18 30.46 120.20 27.00 128.00 Z"/>
</g>
<g fill="None" fill-opacity="0.0" stroke="#343436" stroke-opacity="1.00" stroke-width="0.3"><path d="
M 48.00 101.00 
C 47.10 101.49 45.99 101.39 45.00 102.00
C 42.92 104.19 42.74 105.00 42.00 108.00
C 41.19 114.57 42.61 121.41 42.00 128.00
C 54.29 127.70 40.33 106.64 51.00 102.00
C 51.60 102.05 51.04 100.16 48.00 101.00 Z"/>
</g>
<g fill="None" fill-opacity="0.0" stroke="#333334" stroke-opacity="1.00" stroke-width="0.3"><path d="
M 63.00 102.00 
C 63.70 102.24 64.41 102.54 65.00 103.00
C 65.78 103.61 66.73 104.91 67.00 106.00
C 68.69 112.92 65.74 120.97 67.00 128.00
C 68.67 128.00 70.33 128.00 72.00 128.00
C 73.81 125.37 71.17 118.16 72.00 115.00 C 72.83 111.84 72.26 106.79 71.00 104.00
C 70.08 102.46 67.25 101.81 66.00 101.00
C 64.69 100.58 60.70 99.35 63.00 102.00 Z"/>
</g>
<g fill="None" fill-opacity="0.0" stroke="#3A3A3B" stroke-opacity="1.00" stroke-width="0.3"><path d="
M 149.00 102.00 
C 158.95 106.50 148.42 121.35 153.00 128.00
C 154.40 127.49 156.68 128.68 158.00 128.00
C 158.00 121.00 158.00 114.00 158.00 107.00
C 158.00 106.50 158.10 105.48 158.00 105.00
C 157.25 101.49 153.72 101.11 151.00 100.00
C 148.96 100.31 149.81 101.63 149.00 102.00 Z"/>
</g>
<g fill="None" fill-opacity="0.0" stroke="#323234" stroke-opacity="1.00" stroke-width="0.3"><path d="
M 175.00 128.00 
C 175.00 118.67 175.00 109.33 175.00 100.00
C 173.33 100.00 171.67 100.00 170.00 100.00
C 170.00 109.33 170.00 118.67 170.00 128.00
C 171.63 127.78 173.38 128.29 175.00 128.00 Z"/>
</g>
<g fill="None" fill-opacity="0.0" stroke="#9C9C9E" stroke-opacity="1.00" stroke-width="0.3"><path d="
M 42.00 108.00 
C 40.66 113.41 38.30 120.16 41.08 126.92 C 43.87 133.67 50.42 122.60 48.00 118.00 C 45.58 113.40 47.62 104.05 51.00 102.00
C 40.33 106.64 54.29 127.70 42.00 128.00
C 42.61 121.41 41.19 114.57 42.00 108.00 Z"/>
</g>
<g fill="None" fill-opacity="0.0" stroke="#A6A6A6" stroke-opacity="1.00" stroke-width="0.3"><path d="
M 135.00 105.00 
C 135.94 104.30 137.12 102.53 138.00 102.00
C 137.37 103.00 135.31 102.79 135.00 105.00 Z"/>
</g>
<g fill="None" fill-opacity="0.0" stroke="#626262" stroke-opacity="1.00" stroke-width="0.3"><path d="
M 65.00 105.00 
C 64.98 105.01 67.04 106.08 67.00 106.00
C 66.73 104.91 65.78 103.61 65.00 103.00
C 65.23 103.15 64.89 104.53 65.00 105.00 Z"/>
</g>
<g fill="None" fill-opacity="0.0" stroke="#939394" stroke-opacity="1.00" stroke-width="0.3"><path d="
M 72.00 128.00 
C 70.33 128.00 68.67 128.00 67.00 128.00
C 65.74 120.97 68.69 112.92 67.00 106.00
C 67.04 106.08 64.98 105.01 65.00 105.00
C 67.06 112.57 65.53 121.03 66.00 129.00
C 67.96 128.67 70.76 129.80 72.00 128.00 Z"/>
</g>
<g fill="None" fill-opacity="0.0" stroke="#A3A3A4" stroke-opacity="1.00" stroke-width="0.3"><path d="
M 158.00 107.00 
C 159.08 109.53 161.01 126.45 158.00 128.00
C 156.68 128.68 154.40 127.49 153.00 128.00
C 156.97 133.75 161.46 124.65 160.00 120.00 C 158.54 115.35 160.76 109.45 158.00 105.00
C 158.10 105.48 158.00 106.50 158.00 107.00 Z"/>
</g>
<g fill="None" fill-opacity="0.0" stroke="#99999A" stroke-opacity="1.00" stroke-width="0.3"><path d="
M 134.00 107.00 
C 133.47 110.70 136.25 126.32 133.00 128.00
C 131.68 128.68 129.40 127.49 128.00 128.00
C 131.82 133.54 136.43 125.08 135.00 121.00 C 133.57 116.92 135.00 110.31 135.00 106.00
C 134.88 106.26 134.22 106.70 134.00 107.00 Z"/>
</g>
<g fill="None" fill-opacity="0.0" stroke="#616162" stroke-opacity="1.00" stroke-width="0.3"><path d="
M 133.00 128.00 
C 136.25 126.32 133.47 110.70 134.00 107.00
C 130.31 112.00 134.68 121.92 133.00 128.00 Z"/>
</g>
<g fill="None" fill-opacity="0.0" stroke="#6C6C6E" stroke-opacity="1.00" stroke-width="0.3"><path d="
M 158.00 128.00 
C 161.01 126.45 159.08 109.53 158.00 107.00
C 158.00 114.00 158.00 121.00 158.00 128.00 Z"/>
</g>
<g fill="None" fill-opacity="0.0" stroke="#959595" stroke-opacity="1.00" stroke-width="0.3"><path d="
M 32.00 128.00 
C 31.92 128.19 30.06 128.17 30.00 128.00
C 29.95 127.87 27.24 128.00 27.00 128.00
C 26.50 128.00 25.08 128.19 25.00 128.00
C 25.48 129.66 31.54 129.59 32.00 128.00 Z"/>
</g>
<g fill="None" fill-opacity="0.0" stroke="#959595" stroke-opacity="1.00" stroke-width="0.3"><path d="
M 89.00 128.00 
C 86.67 128.00 84.33 128.00 82.00 128.00
C 83.12 129.60 87.87 129.62 89.00 128.00 Z"/>
</g>
<g fill="None" fill-opacity="0.0" stroke="#A1A2A3" stroke-opacity="1.00" stroke-width="0.3"><path d="
M 75.00 142.00 
C 76.03 135.23 61.04 137.21 59.00 140.00
C 62.57 140.74 65.86 141.56 65.00 146.00 C 64.14 150.44 64.29 154.76 69.00 154.00
C 69.18 149.43 66.94 137.59 75.00 142.00 Z"/>
</g>
<g fill="None" fill-opacity="0.0" stroke="#C8C9C9" stroke-opacity="1.00" stroke-width="0.3"><path d="
M 115.00 139.00 
C 106.36 134.24 94.77 140.92 98.08 149.92 C 101.39 158.92 118.59 155.98 114.00 148.00
C 110.99 153.36 98.90 151.15 102.26 144.26 C 105.61 137.36 116.06 149.30 115.00 139.00
M 114.00 141.00 
C 110.06 141.41 98.71 139.50 101.00 148.00 C 103.29 156.50 112.04 147.96 115.00 152.00
C 109.55 154.96 98.65 155.15 98.03 146.97 C 97.40 138.80 109.30 137.47 114.00 141.00 Z"/>
</g>
<g fill="None" fill-opacity="0.0" stroke="#98989A" stroke-opacity="1.00" stroke-width="0.3"><path d="
M 94.00 140.00 
C 89.99 137.69 83.83 139.65 79.00 139.00
C 79.00 144.00 79.00 149.00 79.00 154.00
C 83.84 153.40 89.91 155.24 94.00 153.00
C 91.61 149.70 84.59 154.55 82.34 150.68 C 80.09 146.81 88.11 145.70 90.00 148.00
C 91.22 141.60 79.48 148.48 82.00 141.00
C 85.84 140.43 90.91 142.19 94.00 140.00 Z"/>
</g>
<g fill="None" fill-opacity="0.0" stroke="#969797" stroke-opacity="1.00" stroke-width="0.3"><path d="
M 114.00 141.00 
C 109.30 137.47 97.40 138.80 98.03 146.97 C 98.65 155.15 109.55 154.96 115.00 152.00
C 112.04 147.96 103.29 156.50 101.00 148.00 C 98.71 139.50 110.06 141.41 114.00 141.00 Z"/>
</g>
<g fill="None" fill-opacity="0.0" stroke="#979798" stroke-opacity="1.00" stroke-width="0.3"><path d="
M 135.00 139.00 
C 136.19 147.36 122.43 147.23 123.00 139.00
C 118.59 141.19 122.14 149.41 121.00 154.00
C 125.46 155.30 125.35 151.15 125.00 148.00
C 130.66 147.56 136.24 147.09 136.00 154.00
C 137.20 150.42 138.71 141.00 135.00 139.00 Z"/>
</g>
<g fill="#FDFDFD" fill-opacity="1.00" stroke="None">
<path d="
M 0.00 200.00 
L 200.00 200.00
L 200.00 0.00
L 0.00 0.00
L 0.00 200.00
M 112.00 53.00 
C 113.58 51.97 114.86 50.49 117.00 51.00
C 113.38 54.04 110.00 58.65 105.00 60.00
C 93.49 41.95 62.24 23.82 50.00 50.00
C 49.43 57.74 47.62 66.71 54.30 72.70 C 60.98 78.68 67.91 80.00 77.00 80.00
C 77.50 80.00 78.53 79.88 79.00 80.00
C 82.60 78.81 86.37 75.81 90.00 74.00
C 90.02 78.66 83.72 79.96 80.00 81.00
C 79.51 81.08 79.00 81.00 79.00 81.00
C 75.83 85.14 65.44 83.34 62.00 81.00
C 61.66 80.77 60.48 81.11 60.00 81.00
C 57.39 80.42 55.93 79.26 54.00 78.00
C 44.36 71.72 41.05 61.98 42.00 50.00
C 42.96 37.94 55.12 27.12 67.00 26.00
C 85.05 22.20 103.64 35.21 113.00 50.00
C 112.98 51.12 110.03 52.33 112.00 53.00
M 142.00 32.00 
C 149.80 35.81 154.06 43.18 156.00 51.00
C 156.90 54.64 157.58 59.69 157.00 64.00
C 156.35 68.84 153.86 70.59 151.00 74.00
C 147.44 79.41 143.20 82.30 137.00 84.00
C 128.65 87.24 122.34 87.35 114.00 84.00
C 110.60 83.16 107.10 81.58 104.00 80.00
C 101.81 78.88 100.36 78.09 99.00 76.00
C 98.56 75.84 98.00 76.00 98.00 76.00
C 96.41 75.46 96.04 73.88 95.00 73.00
C 93.33 71.86 79.81 61.60 83.00 60.00
C 84.62 52.32 94.42 51.22 98.25 56.75 C 102.07 62.29 108.54 67.27 114.00 70.00
C 115.88 70.94 117.98 70.65 119.00 73.00
C 119.18 73.42 119.00 74.00 119.00 74.00
C 119.50 74.04 120.50 73.99 121.00 74.00
C 129.76 74.23 146.95 74.19 150.00 62.00
C 150.19 60.74 150.00 59.28 150.00 58.00
C 150.00 56.33 150.00 54.67 150.00 53.00
C 150.00 52.02 150.10 50.97 150.00 50.00
C 149.54 48.45 147.83 45.74 147.00 44.00
C 145.22 40.28 143.19 38.96 140.00 37.00
C 138.70 36.20 137.14 34.48 136.00 34.00
C 135.50 33.95 134.47 34.11 134.00 34.00
C 124.82 31.88 116.24 33.76 108.00 37.00
C 108.83 35.53 110.07 33.75 112.00 34.00
C 120.73 26.66 131.70 25.08 142.00 32.00
M 32.00 128.00 
C 31.54 129.59 25.48 129.66 25.00 128.00
C 21.54 120.22 28.03 114.63 25.00 106.00 C 21.97 97.37 34.45 96.28 32.00 105.00 C 29.55 113.72 35.44 120.26 32.00 128.00
M 64.00 99.00 
C 67.31 99.81 69.63 100.96 71.00 104.00
C 72.26 106.79 72.83 111.84 72.00 115.00 C 71.17 118.16 73.81 125.37 72.00 128.00
C 70.76 129.80 67.96 128.67 66.00 129.00
C 65.53 121.03 67.06 112.57 65.00 105.00
C 64.89 104.53 65.23 103.15 65.00 103.00
C 64.41 102.54 63.70 102.24 63.00 102.00
C 58.62 100.52 55.21 102.35 51.00 102.00
C 47.62 104.05 45.58 113.40 48.00 118.00 C 50.42 122.60 43.87 133.67 41.08 126.92 C 38.30 120.16 40.66 113.41 42.00 108.00
C 42.74 105.00 42.92 104.19 45.00 102.00
C 47.08 99.82 47.01 99.73 50.00 99.00
C 53.33 97.72 60.64 97.70 64.00 99.00
M 94.00 102.00 
C 88.37 103.64 88.46 107.06 89.00 113.00
C 93.67 113.00 98.33 113.00 103.00 113.00
C 101.80 118.75 93.30 114.86 89.00 116.00
C 89.00 120.00 89.00 124.00 89.00 128.00
C 87.87 129.62 83.12 129.60 82.00 128.00
C 79.13 123.91 83.40 114.05 82.00 109.00 C 80.60 103.95 88.48 99.98 92.00 99.00
C 95.47 98.03 99.23 97.87 103.00 98.00
C 103.75 103.11 96.72 99.94 94.00 102.00
M 118.00 99.00 
C 119.53 101.08 118.17 110.16 118.00 113.00 C 117.83 115.84 119.66 125.75 118.00 128.00
C 117.20 129.09 114.41 129.52 113.00 129.00
C 109.30 127.63 110.85 117.44 111.00 114.00 C 111.15 110.56 109.06 99.46 113.00 98.00
C 114.51 97.44 117.14 97.83 118.00 99.00
M 148.00 99.00 
C 149.65 99.14 149.87 99.54 151.00 100.00
C 153.72 101.11 157.25 101.49 158.00 105.00
C 160.76 109.45 158.54 115.35 160.00 120.00 C 161.46 124.65 156.97 133.75 153.00 128.00
C 148.42 121.35 158.95 106.50 149.00 102.00
C 146.44 103.16 141.47 99.91 138.00 102.00
C 137.12 102.53 135.94 104.30 135.00 105.00
C 134.93 105.49 135.00 106.00 135.00 106.00
C 135.00 110.31 133.57 116.92 135.00 121.00 C 136.43 125.08 131.82 133.54 128.00 128.00
C 125.00 123.66 129.65 114.30 128.00 109.00 C 126.35 103.70 134.68 100.32 138.00 99.00
C 138.43 98.83 139.00 99.00 139.00 99.00
C 141.72 96.99 145.37 98.35 148.00 99.00
M 175.00 99.00 
C 175.20 99.40 175.00 100.00 175.00 100.00
C 175.00 109.33 175.00 118.67 175.00 128.00
C 175.00 128.50 175.00 129.00 175.00 129.00
C 170.82 133.30 167.46 127.59 168.00 124.00 C 168.55 120.41 168.29 112.79 168.00 110.00 C 167.71 107.21 168.46 96.65 170.00 98.00
C 171.17 97.34 174.42 97.85 175.00 99.00
M 75.00 142.00 
C 66.94 137.59 69.18 149.43 69.00 154.00
C 64.29 154.76 64.14 150.44 65.00 146.00 C 65.86 141.56 62.57 140.74 59.00 140.00
C 61.04 137.21 76.03 135.23 75.00 142.00
M 115.00 139.00 
C 116.06 149.30 105.61 137.36 102.26 144.26 C 98.90 151.15 110.99 153.36 114.00 148.00
C 118.59 155.98 101.39 158.92 98.08 149.92 C 94.77 140.92 106.36 134.24 115.00 139.00
M 94.00 140.00 
C 90.91 142.19 85.84 140.43 82.00 141.00
C 79.48 148.48 91.22 141.60 90.00 148.00
C 88.11 145.70 80.09 146.81 82.34 150.68 C 84.59 154.55 91.61 149.70 94.00 153.00
C 89.91 155.24 83.84 153.40 79.00 154.00
C 79.00 149.00 79.00 144.00 79.00 139.00
C 83.83 139.65 89.99 137.69 94.00 140.00
M 135.00 139.00 
C 138.71 141.00 137.20 150.42 136.00 154.00
C 136.24 147.09 130.66 147.56 125.00 148.00
C 125.35 151.15 125.46 155.30 121.00 154.00
C 122.14 149.41 118.59 141.19 123.00 139.00
C 122.43 147.23 136.19 147.36 135.00 139.00 Z"/>
</g>
<g fill="#DBDCDD" fill-opacity="1.00" stroke="None">
<path d="
M 67.00 26.00 
C 74.65 25.28 79.47 28.21 86.00 31.00
C 86.39 35.86 84.68 35.90 80.00 34.00
C 80.54 35.66 82.56 36.33 83.00 38.00
C 91.11 42.15 99.49 49.82 104.00 58.00
C 107.28 58.13 109.99 55.11 112.00 53.00
C 110.03 52.33 112.98 51.12 113.00 50.00
C 103.64 35.21 85.05 22.20 67.00 26.00 Z"/>
</g>
<g fill="#BCBCBF" fill-opacity="1.00" stroke="None">
<path d="
M 42.00 50.00 
C 42.07 54.01 43.48 64.36 46.31 67.69 C 49.13 71.03 54.26 78.28 54.00 78.00
C 55.93 79.26 57.39 80.42 60.00 81.00
C 59.96 80.99 66.58 79.62 62.00 81.00
C 65.44 83.34 75.83 85.14 79.00 81.00
C 77.46 81.10 77.89 80.23 77.00 80.00
C 67.91 80.00 60.98 78.68 54.30 72.70 C 47.62 66.71 49.43 57.74 50.00 50.00
C 51.14 34.52 70.15 31.43 83.00 38.00
C 82.56 36.33 80.54 35.66 80.00 34.00
C 84.68 35.90 86.39 35.86 86.00 31.00
C 79.47 28.21 74.65 25.28 67.00 26.00
C 55.12 27.12 42.96 37.94 42.00 50.00
M 76.00 81.00 
C 73.90 83.08 69.85 81.50 67.00 82.00
C 69.10 79.92 73.15 81.50 76.00 81.00 Z"/>
</g>
<g fill="#F8E3C8" fill-opacity="1.00" stroke="None">
<path d="
M 112.00 34.00 
C 113.86 33.08 115.93 32.26 118.00 32.00
C 124.78 29.37 134.89 28.52 142.00 32.00
C 131.70 25.08 120.73 26.66 112.00 34.00 Z"/>
</g>
<g fill="#EE8C2E" fill-opacity="1.00" stroke="None">
<path d="
M 118.00 32.00 
C 118.49 31.94 119.50 32.00 120.00 32.00
C 123.02 30.71 130.13 29.87 133.00 32.00
C 133.50 32.00 134.00 32.00 134.00 32.00
C 143.98 32.74 150.97 43.69 151.00 53.00
C 151.65 55.03 150.17 56.76 150.00 58.00
C 150.00 59.28 150.19 60.74 150.00 62.00
C 148.22 73.57 129.73 79.93 121.00 74.00
C 120.50 73.99 119.50 74.04 119.00 74.00
C 109.11 73.12 99.83 59.64 94.00 53.00
C 89.99 54.08 86.42 57.55 84.00 61.00
C 94.15 74.50 107.66 82.16 125.00 84.00 C 142.34 85.84 158.27 69.34 156.00 51.00
C 154.06 43.18 149.80 35.81 142.00 32.00
C 134.89 28.52 124.78 29.37 118.00 32.00 Z"/>
</g>
<g fill="#B36E28" fill-opacity="1.00" stroke="None">
<path d="
M 120.00 32.00 
C 124.33 32.00 128.67 32.00 133.00 32.00
C 130.13 29.87 123.02 30.71 120.00 32.00 Z"/>
</g>
<g fill="#938C81" fill-opacity="1.00" stroke="None">
<path d="
M 112.00 34.00 
C 110.07 33.75 108.83 35.53 108.00 37.00
C 116.24 33.76 124.82 31.88 134.00 34.00
C 133.75 33.75 134.23 32.16 134.00 32.00
C 134.00 32.00 133.50 32.00 133.00 32.00
C 128.67 32.00 124.33 32.00 120.00 32.00
C 119.50 32.00 118.49 31.94 118.00 32.00
C 115.93 32.26 113.86 33.08 112.00 34.00 Z"/>
</g>
<g fill="#AC7B4C" fill-opacity="1.00" stroke="None">
<path d="
M 134.00 34.00 
C 134.47 34.11 135.50 33.95 136.00 34.00
C 138.46 34.23 138.41 35.78 140.00 37.00
C 143.19 38.96 145.22 40.28 147.00 44.00
C 148.31 46.03 149.70 47.16 150.00 50.00
C 150.10 50.97 150.00 52.02 150.00 53.00
C 150.27 53.25 151.00 53.00 151.00 53.00
C 150.97 43.69 143.98 32.74 134.00 32.00
C 134.23 32.16 133.75 33.75 134.00 34.00 Z"/>
</g>
<g fill="#969798" fill-opacity="1.00" stroke="None">
<path d="
M 50.00 50.00 
C 62.24 23.82 93.49 41.95 105.00 60.00
C 110.00 58.65 113.38 54.04 117.00 51.00
C 114.86 50.49 113.58 51.97 112.00 53.00
C 109.99 55.11 107.28 58.13 104.00 58.00
C 99.49 49.82 91.11 42.15 83.00 38.00
C 70.15 31.43 51.14 34.52 50.00 50.00 Z"/>
</g>
<g fill="#B9A795" fill-opacity="1.00" stroke="None">
<path d="
M 140.00 37.00 
C 138.41 35.78 138.46 34.23 136.00 34.00
C 137.14 34.48 138.70 36.20 140.00 37.00 Z"/>
</g>
<g fill="#DCC3B4" fill-opacity="1.00" stroke="None">
<path d="
M 150.00 50.00 
C 149.70 47.16 148.31 46.03 147.00 44.00
C 147.83 45.74 149.54 48.45 150.00 50.00 Z"/>
</g>
<g fill="#9A9A9C" fill-opacity="1.00" stroke="None">
<path d="
M 54.00 78.00 
C 54.26 78.28 49.13 71.03 46.31 67.69 C 43.48 64.36 42.07 54.01 42.00 50.00
C 41.05 61.98 44.36 71.72 54.00 78.00 Z"/>
</g>
<g fill="#A97B51" fill-opacity="1.00" stroke="None">
<path d="
M 84.00 61.00 
C 83.80 60.73 82.94 60.29 83.00 60.00
C 79.81 61.60 93.33 71.86 95.00 73.00
C 96.37 73.94 97.06 74.73 98.00 76.00
C 98.00 76.00 98.56 75.84 99.00 76.00
C 101.41 76.87 102.21 78.78 104.00 80.00
C 107.10 81.58 110.60 83.16 114.00 84.00
C 122.09 86.00 128.97 86.21 137.00 84.00
C 143.20 82.30 147.44 79.41 151.00 74.00
C 152.89 71.13 156.24 67.06 157.00 64.00
C 157.58 59.69 156.90 54.64 156.00 51.00
C 158.27 69.34 142.34 85.84 125.00 84.00 C 107.66 82.16 94.15 74.50 84.00 61.00 Z"/>
</g>
<g fill="#F6C38F" fill-opacity="1.00" stroke="None">
<path d="
M 83.00 60.00 
C 82.94 60.29 83.80 60.73 84.00 61.00
C 86.42 57.55 89.99 54.08 94.00 53.00
C 99.83 59.64 109.11 73.12 119.00 74.00
C 119.00 74.00 119.18 73.42 119.00 73.00
C 116.95 72.27 115.69 71.10 114.00 70.00
C 108.54 67.27 102.07 62.29 98.25 56.75 C 94.42 51.22 84.62 52.32 83.00 60.00 Z"/>
</g>
<g fill="#D6AC84" fill-opacity="1.00" stroke="None">
<path d="
M 150.00 58.00 
C 150.17 56.76 151.65 55.03 151.00 53.00
C 151.00 53.00 150.27 53.25 150.00 53.00
C 150.00 54.67 150.00 56.33 150.00 58.00 Z"/>
</g>
<g fill="#F9C998" fill-opacity="1.00" stroke="None">
<path d="
M 121.00 74.00 
C 129.73 79.93 148.22 73.57 150.00 62.00
C 146.95 74.19 129.76 74.23 121.00 74.00 Z"/>
</g>
<g fill="#D0BDAB" fill-opacity="1.00" stroke="None">
<path d="
M 151.00 74.00 
C 153.86 70.59 156.35 68.84 157.00 64.00
C 156.24 67.06 152.89 71.13 151.00 74.00 Z"/>
</g>
<g fill="#FFF3D2" fill-opacity="1.00" stroke="None">
<path d="
M 119.00 73.00 
C 117.98 70.65 115.88 70.94 114.00 70.00
C 115.69 71.10 116.95 72.27 119.00 73.00 Z"/>
</g>
<g fill="#BBAEA3" fill-opacity="1.00" stroke="None">
<path d="
M 98.00 76.00 
C 97.06 74.73 96.37 73.94 95.00 73.00
C 96.04 73.88 96.41 75.46 98.00 76.00 Z"/>
</g>
<g fill="#9B9B9A" fill-opacity="1.00" stroke="None">
<path d="
M 79.00 80.00 
C 79.35 80.09 80.03 80.98 80.00 81.00
C 83.72 79.96 90.02 78.66 90.00 74.00
C 86.37 75.81 82.60 78.81 79.00 80.00 Z"/>
</g>
<g fill="#BAADA4" fill-opacity="1.00" stroke="None">
<path d="
M 104.00 80.00 
C 102.21 78.78 101.41 76.87 99.00 76.00
C 100.36 78.09 101.81 78.88 104.00 80.00 Z"/>
</g>
<g fill="#696969" fill-opacity="1.00" stroke="None">
<path d="
M 60.00 81.00 
C 60.48 81.11 61.66 80.77 62.00 81.00
C 66.58 79.62 59.96 80.99 60.00 81.00 Z"/>
</g>
<g fill="#6B6B6B" fill-opacity="1.00" stroke="None">
<path d="
M 79.00 81.00 
C 79.00 81.00 79.51 81.08 80.00 81.00
C 80.03 80.98 79.35 80.09 79.00 80.00
C 78.53 79.88 77.50 80.00 77.00 80.00
C 77.89 80.23 77.46 81.10 79.00 81.00 Z"/>
</g>
<g fill="#7E7E7E" fill-opacity="1.00" stroke="None">
<path d="
M 76.00 81.00 
C 73.15 81.50 69.10 79.92 67.00 82.00
C 69.85 81.50 73.90 83.08 76.00 81.00 Z"/>
</g>
<g fill="#BFB4AA" fill-opacity="1.00" stroke="None">
<path d="
M 137.00 84.00 
C 128.97 86.21 122.09 86.00 114.00 84.00
C 122.34 87.35 128.65 87.24 137.00 84.00 Z"/>
</g>
<g fill="#5E5E5F" fill-opacity="1.00" stroke="None">
<path d="
M 25.00 128.00 
C 25.08 128.19 26.50 128.00 27.00 128.00
C 30.46 120.20 24.40 108.18 27.00 100.00
C 32.25 100.43 29.50 107.42 30.00 112.00 C 30.50 116.58 29.63 123.23 30.00 128.00
C 30.06 128.17 31.92 128.19 32.00 128.00
C 35.44 120.26 29.55 113.72 32.00 105.00 C 34.45 96.28 21.97 97.37 25.00 106.00 C 28.03 114.63 21.54 120.22 25.00 128.00 Z"/>
</g>
<g fill="#636363" fill-opacity="1.00" stroke="None">
<path d="
M 50.00 99.00 
C 49.41 99.23 48.52 100.72 48.00 101.00
C 51.04 100.16 51.60 102.05 51.00 102.00
C 55.21 102.35 58.62 100.52 63.00 102.00
C 60.70 99.35 64.69 100.58 66.00 101.00
C 65.56 100.71 64.42 99.16 64.00 99.00
C 60.64 97.70 53.33 97.72 50.00 99.00 Z"/>
</g>
<g fill="#707070" fill-opacity="1.00" stroke="None">
<path d="
M 92.00 99.00 
C 93.13 99.34 93.60 101.81 94.00 102.00
C 96.72 99.94 103.75 103.11 103.00 98.00
C 99.23 97.87 95.47 98.03 92.00 99.00 Z"/>
</g>
<g fill="#B1B1B1" fill-opacity="1.00" stroke="None">
<path d="
M 113.00 129.00 
C 110.54 127.63 111.85 116.66 112.00 114.00 C 112.15 111.34 110.34 99.48 113.00 98.00
C 109.06 99.46 111.15 110.56 111.00 114.00 C 110.85 117.44 109.30 127.63 113.00 129.00 Z"/>
</g>
<g fill="#767676" fill-opacity="1.00" stroke="None">
<path d="
M 113.00 129.00 
C 114.41 129.52 117.20 129.09 118.00 128.00
C 116.33 128.00 114.67 128.00 113.00 128.00
C 113.00 118.33 113.00 108.67 113.00 99.00
C 114.67 99.00 116.33 99.00 118.00 99.00
C 117.14 97.83 114.51 97.44 113.00 98.00
C 110.34 99.48 112.15 111.34 112.00 114.00 C 111.85 116.66 110.54 127.63 113.00 129.00 Z"/>
</g>
<g fill="#9E9E9E" fill-opacity="1.00" stroke="None">
<path d="
M 139.00 99.00 
C 141.96 99.00 145.05 98.75 148.00 99.00
C 145.37 98.35 141.72 96.99 139.00 99.00 Z"/>
</g>
<g fill="#C0C0C1" fill-opacity="1.00" stroke="None">
<path d="
M 175.00 129.00 
C 166.03 131.13 167.68 106.18 169.00 100.00
C 169.03 99.87 169.99 98.00 170.00 98.00
C 168.46 96.65 167.71 107.21 168.00 110.00 C 168.29 112.79 168.55 120.41 168.00 124.00 C 167.46 127.59 170.82 133.30 175.00 129.00 Z"/>
</g>
<g fill="#8D8D8F" fill-opacity="1.00" stroke="None">
<path d="
M 169.00 100.00 
C 168.61 99.41 174.48 98.87 175.00 99.00
C 174.42 97.85 171.17 97.34 170.00 98.00
C 169.99 98.00 169.03 99.87 169.00 100.00 Z"/>
</g>
<g fill="#A5A5A6" fill-opacity="1.00" stroke="None">
<path d="
M 45.00 102.00 
C 45.99 101.39 47.10 101.49 48.00 101.00
C 48.52 100.72 49.41 99.23 50.00 99.00
C 47.01 99.73 47.08 99.82 45.00 102.00 Z"/>
</g>
<g fill="#A2A2A2" fill-opacity="1.00" stroke="None">
<path d="
M 66.00 101.00 
C 67.25 101.81 70.08 102.46 71.00 104.00
C 69.63 100.96 67.31 99.81 64.00 99.00
C 64.42 99.16 65.56 100.71 66.00 101.00 Z"/>
</g>
<g fill="#4E4E4E" fill-opacity="1.00" stroke="None">
<path d="
M 82.00 128.00 
C 84.33 128.00 86.67 128.00 89.00 128.00
C 89.00 124.00 89.00 120.00 89.00 116.00
C 93.30 114.86 101.80 118.75 103.00 113.00
C 98.33 113.00 93.67 113.00 89.00 113.00
C 88.46 107.06 88.37 103.64 94.00 102.00
C 93.60 101.81 93.13 99.34 92.00 99.00
C 88.48 99.98 80.60 103.95 82.00 109.00 C 83.40 114.05 79.13 123.91 82.00 128.00 Z"/>
</g>
<g fill="#333333" fill-opacity="1.00" stroke="None">
<path d="
M 118.00 128.00 
C 119.66 125.75 117.83 115.84 118.00 113.00 C 118.17 110.16 119.53 101.08 118.00 99.00
C 116.33 99.00 114.67 99.00 113.00 99.00
C 113.00 108.67 113.00 118.33 113.00 128.00
C 114.67 128.00 116.33 128.00 118.00 128.00 Z"/>
</g>
<g fill="#3D3D3E" fill-opacity="1.00" stroke="None">
<path d="
M 128.00 128.00 
C 129.40 127.49 131.68 128.68 133.00 128.00
C 134.68 121.92 130.31 112.00 134.00 107.00
C 134.22 106.70 134.88 106.26 135.00 106.00
C 135.00 106.00 134.93 105.49 135.00 105.00
C 135.31 102.79 137.37 103.00 138.00 102.00
C 138.91 100.56 138.52 100.49 138.00 99.00
C 134.68 100.32 126.35 103.70 128.00 109.00 C 129.65 114.30 125.00 123.66 128.00 128.00 Z"/>
</g>
<g fill="#5D5D5D" fill-opacity="1.00" stroke="None">
<path d="
M 138.00 102.00 
C 141.47 99.91 146.44 103.16 149.00 102.00
C 149.81 101.63 148.96 100.31 151.00 100.00
C 149.87 99.54 149.65 99.14 148.00 99.00
C 145.05 98.75 141.96 99.00 139.00 99.00
C 139.00 99.00 138.43 98.83 138.00 99.00
C 138.52 100.49 138.91 100.56 138.00 102.00 Z"/>
</g>
<g fill="#6D6D6F" fill-opacity="1.00" stroke="None">
<path d="
M 169.00 100.00 
C 167.68 106.18 166.03 131.13 175.00 129.00
C 175.00 129.00 175.00 128.50 175.00 128.00
C 173.38 128.29 171.63 127.78 170.00 128.00
C 170.00 118.67 170.00 109.33 170.00 100.00
C 171.67 100.00 173.33 100.00 175.00 100.00
C 175.00 100.00 175.20 99.40 175.00 99.00
C 174.48 98.87 168.61 99.41 169.00 100.00 Z"/>
</g>
<g fill="#323233" fill-opacity="1.00" stroke="None">
<path d="
M 27.00 128.00 
C 27.24 128.00 29.95 127.87 30.00 128.00
C 29.63 123.23 30.50 116.58 30.00 112.00 C 29.50 107.42 32.25 100.43 27.00 100.00
C 24.40 108.18 30.46 120.20 27.00 128.00 Z"/>
</g>
<g fill="#343436" fill-opacity="1.00" stroke="None">
<path d="
M 48.00 101.00 
C 47.10 101.49 45.99 101.39 45.00 102.00
C 42.92 104.19 42.74 105.00 42.00 108.00
C 41.19 114.57 42.61 121.41 42.00 128.00
C 54.29 127.70 40.33 106.64 51.00 102.00
C 51.60 102.05 51.04 100.16 48.00 101.00 Z"/>
</g>
<g fill="#333334" fill-opacity="1.00" stroke="None">
<path d="
M 63.00 102.00 
C 63.70 102.24 64.41 102.54 65.00 103.00
C 65.78 103.61 66.73 104.91 67.00 106.00
C 68.69 112.92 65.74 120.97 67.00 128.00
C 68.67 128.00 70.33 128.00 72.00 128.00
C 73.81 125.37 71.17 118.16 72.00 115.00 C 72.83 111.84 72.26 106.79 71.00 104.00
C 70.08 102.46 67.25 101.81 66.00 101.00
C 64.69 100.58 60.70 99.35 63.00 102.00 Z"/>
</g>
<g fill="#3A3A3B" fill-opacity="1.00" stroke="None">
<path d="
M 149.00 102.00 
C 158.95 106.50 148.42 121.35 153.00 128.00
C 154.40 127.49 156.68 128.68 158.00 128.00
C 158.00 121.00 158.00 114.00 158.00 107.00
C 158.00 106.50 158.10 105.48 158.00 105.00
C 157.25 101.49 153.72 101.11 151.00 100.00
C 148.96 100.31 149.81 101.63 149.00 102.00 Z"/>
</g>
<g fill="#323234" fill-opacity="1.00" stroke="None">
<path d="
M 175.00 128.00 
C 175.00 118.67 175.00 109.33 175.00 100.00
C 173.33 100.00 171.67 100.00 170.00 100.00
C 170.00 109.33 170.00 118.67 170.00 128.00
C 171.63 127.78 173.38 128.29 175.00 128.00 Z"/>
</g>
<g fill="#9C9C9E" fill-opacity="1.00" stroke="None">
<path d="
M 42.00 108.00 
C 40.66 113.41 38.30 120.16 41.08 126.92 C 43.87 133.67 50.42 122.60 48.00 118.00 C 45.58 113.40 47.62 104.05 51.00 102.00
C 40.33 106.64 54.29 127.70 42.00 128.00
C 42.61 121.41 41.19 114.57 42.00 108.00 Z"/>
</g>
<g fill="#A6A6A6" fill-opacity="1.00" stroke="None">
<path d="
M 135.00 105.00 
C 135.94 104.30 137.12 102.53 138.00 102.00
C 137.37 103.00 135.31 102.79 135.00 105.00 Z"/>
</g>
<g fill="#626262" fill-opacity="1.00" stroke="None">
<path d="
M 65.00 105.00 
C 64.98 105.01 67.04 106.08 67.00 106.00
C 66.73 104.91 65.78 103.61 65.00 103.00
C 65.23 103.15 64.89 104.53 65.00 105.00 Z"/>
</g>
<g fill="#939394" fill-opacity="1.00" stroke="None">
<path d="
M 72.00 128.00 
C 70.33 128.00 68.67 128.00 67.00 128.00
C 65.74 120.97 68.69 112.92 67.00 106.00
C 67.04 106.08 64.98 105.01 65.00 105.00
C 67.06 112.57 65.53 121.03 66.00 129.00
C 67.96 128.67 70.76 129.80 72.00 128.00 Z"/>
</g>
<g fill="#A3A3A4" fill-opacity="1.00" stroke="None">
<path d="
M 158.00 107.00 
C 159.08 109.53 161.01 126.45 158.00 128.00
C 156.68 128.68 154.40 127.49 153.00 128.00
C 156.97 133.75 161.46 124.65 160.00 120.00 C 158.54 115.35 160.76 109.45 158.00 105.00
C 158.10 105.48 158.00 106.50 158.00 107.00 Z"/>
</g>
<g fill="#99999A" fill-opacity="1.00" stroke="None">
<path d="
M 134.00 107.00 
C 133.47 110.70 136.25 126.32 133.00 128.00
C 131.68 128.68 129.40 127.49 128.00 128.00
C 131.82 133.54 136.43 125.08 135.00 121.00 C 133.57 116.92 135.00 110.31 135.00 106.00
C 134.88 106.26 134.22 106.70 134.00 107.00 Z"/>
</g>
<g fill="#616162" fill-opacity="1.00" stroke="None">
<path d="
M 133.00 128.00 
C 136.25 126.32 133.47 110.70 134.00 107.00
C 130.31 112.00 134.68 121.92 133.00 128.00 Z"/>
</g>
<g fill="#6C6C6E" fill-opacity="1.00" stroke="None">
<path d="
M 158.00 128.00 
C 161.01 126.45 159.08 109.53 158.00 107.00
C 158.00 114.00 158.00 121.00 158.00 128.00 Z"/>
</g>
<g fill="#959595" fill-opacity="1.00" stroke="None">
<path d="
M 32.00 128.00 
C 31.92 128.19 30.06 128.17 30.00 128.00
C 29.95 127.87 27.24 128.00 27.00 128.00
C 26.50 128.00 25.08 128.19 25.00 128.00
C 25.48 129.66 31.54 129.59 32.00 128.00 Z"/>
</g>
<g fill="#959595" fill-opacity="1.00" stroke="None">
<path d="
M 89.00 128.00 
C 86.67 128.00 84.33 128.00 82.00 128.00
C 83.12 129.60 87.87 129.62 89.00 128.00 Z"/>
</g>
<g fill="#A1A2A3" fill-opacity="1.00" stroke="None">
<path d="
M 75.00 142.00 
C 76.03 135.23 61.04 137.21 59.00 140.00
C 62.57 140.74 65.86 141.56 65.00 146.00 C 64.14 150.44 64.29 154.76 69.00 154.00
C 69.18 149.43 66.94 137.59 75.00 142.00 Z"/>
</g>
<g fill="#C8C9C9" fill-opacity="1.00" stroke="None">
<path d="
M 115.00 139.00 
C 106.36 134.24 94.77 140.92 98.08 149.92 C 101.39 158.92 118.59 155.98 114.00 148.00
C 110.99 153.36 98.90 151.15 102.26 144.26 C 105.61 137.36 116.06 149.30 115.00 139.00
M 114.00 141.00 
C 110.06 141.41 98.71 139.50 101.00 148.00 C 103.29 156.50 112.04 147.96 115.00 152.00
C 109.55 154.96 98.65 155.15 98.03 146.97 C 97.40 138.80 109.30 137.47 114.00 141.00 Z"/>
</g>
<g fill="#98989A" fill-opacity="1.00" stroke="None">
<path d="
M 94.00 140.00 
C 89.99 137.69 83.83 139.65 79.00 139.00
C 79.00 144.00 79.00 149.00 79.00 154.00
C 83.84 153.40 89.91 155.24 94.00 153.00
C 91.61 149.70 84.59 154.55 82.34 150.68 C 80.09 146.81 88.11 145.70 90.00 148.00
C 91.22 141.60 79.48 148.48 82.00 141.00
C 85.84 140.43 90.91 142.19 94.00 140.00 Z"/>
</g>
<g fill="#969797" fill-opacity="1.00" stroke="None">
<path d="
M 114.00 141.00 
C 109.30 137.47 97.40 138.80 98.03 146.97 C 98.65 155.15 109.55 154.96 115.00 152.00
C 112.04 147.96 103.29 156.50 101.00 148.00 C 98.71 139.50 110.06 141.41 114.00 141.00 Z"/>
</g>
<g fill="#979798" fill-opacity="1.00" stroke="None">
<path d="
M 135.00 139.00 
C 136.19 147.36 122.43 147.23 123.00 139.00
C 118.59 141.19 122.14 149.41 121.00 154.00
C 125.46 155.30 125.35 151.15 125.00 148.00
C 130.66 147.56 136.24 147.09 136.00 154.00
C 137.20 150.42 138.71 141.00 135.00 139.00 Z"/>
</g>
</svg>